<svg xmlns="http://www.w3.org/2000/svg" width="1761" height="882" viewBox="0 0 1761 882"><defs><style>.a{fill:#f2f2f2;}.b{fill:rgba(0,0,0,0.1);}.c{fill:#afb9c5;}.d{fill:#c5cfd6;}.e{fill:#a4eaad;}.f{fill:#c3eac9;}.g{fill:#dde3e9;}.h{opacity:0.7;}.i{fill:none;stroke:#cbcbcb;stroke-width:8px;}.j{fill:#89c5cc;}.k{fill:#c1dee2;}.l{fill:#69a1ac;}.m{fill:#fff;}.n{fill:#d4a181;}.o{fill:#191847;}.p{fill:#ba8b72;}.q{fill:#2026a2;}.r{fill:#1f28cf;}.s{fill:#b28b67;}.t{fill:#e4e4e4;}.u{fill:#2b44ff;}.v{fill:#997659;}.w{fill:#e87613;}.x{fill:#ff9b21;}</style></defs><g transform="translate(-11.836 -9)"><g transform="translate(1419.699 157)"><circle class="a" cx="92.3" cy="92.3" r="92.3"/><circle class="b" cx="5.2" cy="5.2" r="5.2" transform="translate(87.1 13.9)"/><circle class="b" cx="5.2" cy="5.2" r="5.2" transform="translate(14 87.1)"/><circle class="b" cx="5.2" cy="5.2" r="5.2" transform="translate(160.2 87.1)"/><circle class="b" cx="5.2" cy="5.2" r="5.2" transform="translate(87.1 160.2)"/><path class="c" d="M1140.6,101.6l3.5,60.9h-7Z" transform="translate(-1048.3 -72)"/><path class="c" d="M1171.4,195.1l-32-27.1,4.9-4.9Z" transform="translate(-1048.3 -72)"/><circle class="d" cx="7" cy="7" r="7" transform="translate(85.3 85.3)"/></g><path class="e" d="M1040.6,708.9c-15-167.7-820-491.3-969.4-332.5S65.4,833.2,378.6,909.6,1055.6,876.5,1040.6,708.9Z" transform="translate(0 -180.1)"/><path class="f" d="M746.4,782.5c16.5-175,902.5-512.8,1067-347s122.9,514.5-221.9,594.1S729.9,957.5,746.4,782.5Z" transform="translate(-133.601 -180.1)"/><g transform="translate(97.6 9)"><g transform="translate(0 265.873)"><ellipse class="a" cx="74" cy="39.2" rx="74" ry="39.2" transform="translate(12.2 20.8)"/><path class="g" d="M245,209.2c0-48.1-38.6-87-86.2-87s-86.2,39-86.2,87" transform="translate(-72.6 -122.2)"/></g><rect class="g" width="8.7" height="278.6" transform="translate(81.9)"/></g><g class="h" transform="translate(254.4 9)"><g transform="translate(0 196.8)"><ellipse class="a" cx="55.3" cy="31.6" rx="55.3" ry="31.6" transform="translate(9.1 16.8)"/><path class="g" d="M268.2,163c0-38.8-28.8-70.2-64.4-70.2s-64.4,31.5-64.4,70.2" transform="translate(-139.4 -92.8)"/></g><rect class="g" width="8.7" height="236.8" transform="translate(60.9)"/></g><g transform="translate(1454.199 177.081)"><path class="i" d="M1166.9,218.8l32.3-32.3a14,14,0,0,1,19.7,0h0l86.1,86.1a27.94,27.94,0,0,1,8.2,19.7V862.6" transform="translate(-1063.8 -159.181)"/><path class="c" d="M1266.1,860.8h92.3a5.164,5.164,0,0,1,5.2,5.2v1.7a5.164,5.164,0,0,1-5.2,5.2h-92.3a5.164,5.164,0,0,1-5.2-5.2V866A5.164,5.164,0,0,1,1266.1,860.8Z" transform="translate(-1063.8 -159.181)"/><g transform="translate(81.93 0) rotate(45)"><path class="d" d="M57.4,0h0a57.508,57.508,0,0,1,57.5,57.5v48.7H0V57.5A57.487,57.487,0,0,1,57.4,0Z"/><ellipse class="a" cx="11.3" cy="57.5" rx="11.3" ry="57.5" transform="translate(115.253 93.267) rotate(90)"/></g></g><g transform="translate(81.973 476.502)"><g transform="translate(40.121)"><path class="g" d="M126.3,285.9c5-.6,10.3-.4,14.9,1.6,9.9,4.2,12.7,15.8,12.5,25.3-.1,10.2-2.3,21.3,5.4,29.5,3.6,3.8,8,6.7,11.5,10.5a48.169,48.169,0,0,1,8.8,13.9c4,9.3,5.9,20.2,2.3,29.9-3.2,8.6-11.3,16.3-9.5,26,1.8,10.2,12.1,17.9,18.5,25.5,7.2,8.6,13.9,19.5,15,30.7,1.1,10.8-3.6,21.6-10.8,29.8-14.4,16.3-36,24.2-57.7,24.2-9.2,0-19.7-.4-27.7-5.4a14.247,14.247,0,0,1-5.2-5.7,19.027,19.027,0,0,0-5.1-5.1,29.293,29.293,0,0,1-9.6-12.9c-7.9-19.6-1.6-43.7,9.5-61.1,2.6-4.1,4.8-8.1,3.5-13-1.3-5.1-4.6-9.7-7.5-14.1-2.9-4.3-6.1-8.5-8.3-13.2a30.5,30.5,0,0,1-2.6-15.5c.8-10.1,5.1-19.5,11.3-27.6,6-7.8,13-15.4,13-25.6,0-10.9-7.3-20.6-4.2-31.7,1.3-4.6,3.9-9.3,8-12C116.3,287.4,121.6,286.5,126.3,285.9Z" transform="translate(-84.094 -285.602)"/><path class="d" d="M123,303.4c.1-1.5,1.8-2.3,3.2-2,1.8.5,1.8,2.2,1.7,3.7a50.921,50.921,0,0,0,1.6,13.5c2.3,9.3,6.5,17.8,9.9,26.8,3.4,8.9,4.9,18.1,3,27.5-1.9,8.9-4.8,17.5-6.7,26.4-1.7,7.8-3.5,16.1-.9,23.9,2.5,7.5,7.9,13.7,11.8,20.5,8.1,14.1,11.7,29.7,12.2,45.8.2,7.5,0,15-1.7,22.3-1,4.2-2.3,9.9-6,12.8-1.7,1.3-4.5,1.8-5.9-.2-1.3-1.9-.2-4.8.3-6.7a99.506,99.506,0,0,0,1.7-26.1c-.4-8.5-1.4-16.9-4.1-25a83.679,83.679,0,0,0-10.7-20.8c-4.5-6.7-9.2-13.4-11-21.3-1.9-8-.4-16.2,1.7-24.1,2.2-8.4,5-16.5,8-24.6,2.9-7.9,3.9-15.4,2.3-23.7C130.3,335.8,121.9,320.4,123,303.4Z" transform="translate(-84.094 -285.602)"/></g><g transform="translate(55.787 17.496)"><path class="g" d="M248,294.8c6.2,1.9,12.3,4.9,16.7,9.6,9.4,10.1,6.5,25.3,1.3,36.4-5.6,12-14,24-9.2,37.8,2.2,6.3,5.9,12,7.9,18.4a62.48,62.48,0,0,1,3,21c-.2,13-3.7,27-13.1,36.6-8.3,8.5-21.9,13.4-25,25.8-3.2,13,4.7,27.5,8.2,39.8,4,13.9,6,30.3,1.4,44.2-4.5,13.3-15.7,23.7-28.4,29.6-25.4,11.8-55,9.9-80.5-1.4-10.8-4.8-22.9-10.8-29.6-20.8-2.1-3.1-2.7-5.8-3.1-9.4a22.618,22.618,0,0,0-3.3-8.6,38.424,38.424,0,0,1-4.5-20.2c1.1-27.2,21.3-52.6,43.4-67.3,5.2-3.5,9.9-7.1,11-13.5,1.1-6.7-.2-13.9-1.3-20.6-1-6.6-2.7-13.2-2.8-20a38.607,38.607,0,0,1,5.2-19.6c6.3-11.6,16.3-20.3,27.9-26.8,11.1-6.2,23.3-11.4,28.8-23.6,5.8-12.9,2.4-28.1,11.9-39.6,3.9-4.8,9.4-9,15.8-10.1C235.5,291.3,242.1,293,248,294.8Z" transform="translate(-89.76 -292.098)"/><path class="d" d="M235.3,316.1c.9-1.7,3.4-1.8,4.8-.6,1.8,1.5.9,3.5.1,5.3a66.226,66.226,0,0,0-5.2,16.9c-2.2,12.2-1.7,24.6-2.4,36.9s-3.7,24-10.9,34.2c-6.8,9.6-14.8,18.3-21.7,27.8-6.1,8.4-12.5,17.3-13.6,27.9-1.1,10.2,2.1,20.3,3.1,30.4,2.1,20.9-1.9,41.3-9.7,60.6-3.7,9-7.8,17.8-13.7,25.6-3.4,4.5-7.9,10.5-13.7,12.1-2.7.7-6.2-.2-6.8-3.3-.6-2.9,2.3-5.7,3.8-7.8a132.035,132.035,0,0,0,15.7-30c3.9-10.2,7.2-20.8,8.3-31.7a109.353,109.353,0,0,0-1.6-30.2c-1.8-10.3-3.7-20.7-1.8-31,2-10.5,8.1-19.4,14.6-27.7a328.628,328.628,0,0,1,22.2-24.9c7.5-7.9,12.6-16.2,15.1-26.9C226.9,358.3,225.1,335.7,235.3,316.1Z" transform="translate(-89.76 -292.098)"/></g><g transform="translate(0 97.498)"><path class="d" d="M89.2,326.1c10.3,0,19.3,5.4,25.5,13.2,7.3,9,8.7,20.1,11.7,30.8,1.5,5.4,4,10.7,8.4,14.3,4,3.3,9.1,4,14,5.6a32.651,32.651,0,0,1,20.5,20.5c3.8,11.6-.2,23.3.5,35,.6,10.8,11.3,17.5,19.8,22.7,8.4,5.1,16,9.9,18.6,19.8,2.7,10.5,3.6,22.3-.1,32.7-6.2,17.3-24.4,25-42,26.1-16,1.1-36-.6-48-12.2-7.2-6.9-9.8-16.6-9.4-26.3a81.779,81.779,0,0,1,2.9-17.7c1.1-4.1,2.6-8.2,3-12.4,1.1-11.3-9.3-13.5-18.2-16.6C85,457.8,77.1,450.4,71.6,440c-5.1-9.7-7.3-20.5-4.2-31.1a36.38,36.38,0,0,1,8.3-14.5c1.7-1.8,4.1-3.4,5.6-5.3,1.4-1.8,1.1-4.2.6-6.3-2.3-9.8-9.4-17.9-11.9-27.6-2.3-8.8-.9-19.8,7.1-25.5A21.484,21.484,0,0,1,89.2,326.1Z" transform="translate(-65.973 -326.1)"/><path class="c" d="M103.1,351.6c10.9,11.6,13.8,27.3,14.7,42.5.5,8.5,0,17.6,2.5,25.8,2.1,7.1,7.2,12.5,12.4,17.6,10.4,10.3,22.1,20.8,25.2,35.7,1.8,8.8.6,17.8,3.1,26.5A74.845,74.845,0,0,0,172,522c3.9,5.4,8.9,9.5,13.2,14.4,1.3,1.5,3.2,3.8,2.6,5.9-.6,2.5-3.8,3.3-6.1,2.9-5.3-.9-9.8-6-13.2-9.7a82.748,82.748,0,0,1-12.9-17.7,75.715,75.715,0,0,1-8.4-23c-1.4-8.4-.7-17.2-3.9-25.2C138,456,125,448,115.6,437.4c-11.7-13.2-9.9-29.6-8.7-45.8.7-8.9,1.3-19-3.2-27.1-1.7-3.1-5.6-6-6.3-9.5C96.7,352,100.4,348.7,103.1,351.6Z" transform="translate(-65.973 -326.1)"/></g><path class="j" d="M114.7,599c0,66.3,10.8,101,67.9,101s67.9-34.7,67.9-101Z" transform="translate(-65.973 -285.602)"/></g><g transform="translate(289.1 443.5)"><g transform="translate(40.2)"><path class="c" d="M211.3,521.3h59.2a3.543,3.543,0,0,1,3.5,3.5v8.7a3.543,3.543,0,0,1-3.5,3.5H211.3a3.543,3.543,0,0,1-3.5-3.5v-8.7A3.418,3.418,0,0,1,211.3,521.3Z" transform="translate(-171.3 -270.6)"/><path class="g" d="M225.2,470.8a290.919,290.919,0,0,0,12.6-76.6h7.9a290.919,290.919,0,0,0,12.6,76.6h11.3a27,27,0,1,1,0,54H212.1a27,27,0,0,1,0-54Z" transform="translate(-171.3 -270.6)"/><path class="d" d="M179.3,273.5c20-1.9,39.9-2.9,59.9-2.9s39.9,1,59.9,2.9l8,138.3c-22.6,2.2-45.3,3.3-67.9,3.3s-45.3-1.1-67.9-3.3Z" transform="translate(-171.3 -270.6)"/></g><path class="a" d="M190.7,536.9H371.8V718H335.2V575.2H190.7V718H154.1V536.9Z" transform="translate(-154.1 -270.6)"/></g><g transform="translate(1475.399 399.9)"><g transform="translate(22.6)"><path class="k" d="M1087.6,252.4c15.4,36.5,41.5,61.9,55.4,99.9,8.2,22.5,11.6,47,11.8,72.1.1,13.6-.1,27.3-.2,40.9-.1,13.3-.4,26.5-1.6,39.7-1.1,13.3-2.4,26.4-3,39.8-.4,10.4-.6,22.5-4.2,32-2.8,7.5-9.9,8.7-11.8-.5-1.1-5.1-.9-10.8-.8-16,.1-6.7.5-13.4.7-20.1.8-26.9-.2-53.9.3-80.8.5-26.3,3.9-52.6.2-78.8-3.1-21.6-10.9-40.1-20-57.9-8.7-17.1-18.1-33.8-24-53.2a91.077,91.077,0,0,1-3.6-17.4A.63.63,0,0,1,1087.6,252.4Z" transform="translate(-1081.6 -252)"/><path class="j" d="M1083.4,324.5c3,2.2,4.7,5.4,6.8,8.6,2.6,3.9,5.6,7.5,8.1,11.5,5.3,8.2,10,17,14.9,25.5,9.2,16.3,16.2,33.6,19.7,52.4,3.6,19.5,4.6,39.6,6.1,59.4,1.6,21,3.2,42.1,3.4,63.1.1,9.4.6,19.4-.5,28.8-.7,5.8-3.3,10.8-9.3,10.8-12.6-.1-18.5-14.1-21-25.5-3.6-16.9-4.4-34.8-3.8-52,.7-20.8,4.3-41.2,5.9-61.9,1.7-21.9.7-43.4-6.8-64.1-3.8-10.4-8.2-20.6-12.2-31-1.7-4.4-3.1-8.9-5.4-13-2.5-4.6-5.7-8.7-7.7-13.6A16.184,16.184,0,0,1,1083.4,324.5Z" transform="translate(-1081.6 -252)"/><path class="k" d="M1228.5,280.8l1.2-.9c-1.1,4.7-3.1,8.5-4.7,12.8a97.581,97.581,0,0,0-3,12.4c-2.2,9.9-4.7,19.6-6.8,29.5-4.1,19.7-3.3,41-.6,62.9,2.5,20.7,6.5,41.3,8.4,62,1.6,17.2,2.3,34.8.8,51.2-1,11.1-4.4,24.4-13.5,23.3-4.3-.5-6.6-5.7-7.5-11.6-1.5-9.4-1.8-19.3-2.3-28.6-1.3-20.9-1.5-41.7-1.8-62.3-.2-19.5-.9-39.3.4-58.3a181.81,181.81,0,0,1,10.8-50.1c3-8,5.8-16.2,9.1-23.9,1.6-3.7,3.5-6.9,5.1-10.6C1225.4,285.7,1226.4,282.7,1228.5,280.8Z" transform="translate(-1081.6 -252)"/><path class="k" d="M1087.3,384.9c1.7-2.8,5.3,6.4,5.9,7.6-.2-.6-.5-1.2-.7-1.7a77.756,77.756,0,0,1,8.2,17.5c1.9,6.2,3.5,12.6,5.2,18.9,3.3,11.8,7.5,23.3,10.5,35.2a114.23,114.23,0,0,1,2.9,35c-.7,12.5-1.2,25.1-.3,37.6.4,6,2.3,11.5,3.7,17.2,1.3,5.7,2.4,11.5,3.9,17.2.4-.7.4,1.7.4,1.9a10.361,10.361,0,0,1-.7,3.9c-1.2,3.4-3.4,6.4-6.7,7.3-6,1.7-11.6-3.8-13.5-9.5-2.8-8.3-4.3-17.5-5.6-26.2a121.337,121.337,0,0,1-1.1-24.1c.7-16,3.6-31.8,4.4-47.7.9-17.4-2.6-33.7-5.5-50.7-1.4-8.2-2.7-16.2-5.4-24a69.773,69.773,0,0,0-4-8.8C1087.9,389.8,1086.1,386.8,1087.3,384.9Z" transform="translate(-1081.6 -252)"/><path class="l" d="M1136.1,357.7c-.7,19.9-1.9,39.7-4.5,59.4-2.7,20.1-5.8,40.2-8.4,60.3-2.5,19.6-5.2,39.5-4.8,59.4.3,14.6-2.2,39.4,14.1,46.6,16.5,7.3,20-23.9,21.1-34.2,2.1-19.8,1.4-39.8.4-59.7-1-20.4-2.8-40.7-4.9-61.1-2.4-22.6-4.2-45.3-5.7-68-.7-11.2-.9-22.4-.7-33.6.2-10.6-.2-21.3-4-31.3-.2.1-.4.3-.6.4" transform="translate(-1081.6 -252)"/><path class="j" d="M1221.1,420.8c-3,4.3-5.9,8.6-8.7,13.2-5,8.2-9.5,17.3-10.9,29-2.8,24.5-.6,50.9,0,76.1.1,5.2-.5,10.2,1.5,15.1,1.8,4.4,5.3,7.8,8.6,7.8,7,0,6-17.2,6-24.8,0-13.3-1.5-26.7-1.3-39.9a274.681,274.681,0,0,1,2.8-38.8,223.975,223.975,0,0,1,8.5-36.1c.5-1.6,4.2-13.7.7-11.6" transform="translate(-1081.6 -252)"/><path class="l" d="M1190.1,290.3c-4.6,0-4.6,23-4.7,26-.5,10.7-.4,21.3-.7,32-.7,23.3-1.5,46.8-5,69.8-1.9,12.4-4.1,24.7-6.4,37-2.4,12.3-5.5,24.7-7.1,37.2-1.5,12-.6,24.3-.4,36.3a314.364,314.364,0,0,0,2.2,36.3c.4,3,.9,5.9,1.3,8.9.4,2.5.2,5.5.9,7.9,1.1,3.7,5.9,5,9.1,4.4,8.7-1.6,14.2-12.5,17.2-20.5,3.8-10.2,5.8-21.2,7.8-32a285.449,285.449,0,0,0,4.2-36.9c1.3-25.2-.4-50.3-2.2-75.4-1-13.9-2.2-27.8-3.9-41.7-1.8-13.8-4-27.5-5.5-41.4-1.1-10.1-2.1-20.1-2.8-30.2-.4-2.2-.5-17.7-4-17.7" transform="translate(-1081.6 -252)"/><path class="j" d="M1184.3,457.7c-.8-24.2-10.5-130.4-12.7-159.6-.6-7.3-5.9-37.8-6.6-46.1-1.9,2.3-1.7,38.8-1.7,47.2,0,8.3-1,16.5-1.5,24.7-.5,8.4-13,117.1-14.6,125.2-3.2,16.1-5.4,32.6-7,49.1-1.6,16-4.1,33-2,49.1a48.666,48.666,0,0,0,2.6,10.8c1.4,3.7,2.3,7.1,3.4,10.9,1.8,6.2,5,11.7,10,14.2,10.2,5.3,15.7-6.6,18.4-17a276.9,276.9,0,0,0,8.6-50.7c1.5-19.2,3.7-38.4,3.1-57.8" transform="translate(-1081.6 -252)"/></g><g transform="translate(0 276.9)"><path class="m" d="M1092.9,369.9h151.5a3.543,3.543,0,0,1,3.5,3.5V524.9a3.543,3.543,0,0,1-3.5,3.5H1092.9a3.543,3.543,0,0,1-3.5-3.5V373.3A3.458,3.458,0,0,1,1092.9,369.9Z" transform="translate(-1072 -369.9)"/><path class="d" d="M1075.5,387.3h10.4a3.543,3.543,0,0,1,3.5,3.5V580.6a3.543,3.543,0,0,1-3.5,3.5h-10.4a3.543,3.543,0,0,1-3.5-3.5V390.7A3.458,3.458,0,0,1,1075.5,387.3Z" transform="translate(-1072 -369.9)"/><path class="d" d="M1162.6,387.3H1173a3.543,3.543,0,0,1,3.5,3.5V580.6a3.543,3.543,0,0,1-3.5,3.5h-10.4a3.543,3.543,0,0,1-3.5-3.5V390.7A3.4,3.4,0,0,1,1162.6,387.3Z" transform="translate(-1072 -369.9)"/><path class="d" d="M1251.4,387.3h10.4a3.543,3.543,0,0,1,3.5,3.5V580.6a3.543,3.543,0,0,1-3.5,3.5h-10.4a3.543,3.543,0,0,1-3.5-3.5V390.7A3.4,3.4,0,0,1,1251.4,387.3Z" transform="translate(-1072 -369.9)"/></g></g><g transform="translate(349.169 67.011)"><g transform="translate(0 0)"><g transform="matrix(0.966, 0.259, -0.259, 0.966, 97.621, 0)"><g transform="translate(91.929 21.409)"><path class="n" d="M16.2,67.52c-9-10.6-15.1-23.5-14.1-38.1C5-12.48,63.3-3.28,74.6,17.92s10,74.7-4.7,78.5c-5.8,1.5-18.3-2.2-31-9.8l8,56.2H0Z" transform="translate(0 0)"/></g><path class="o" d="M124.313,86c-5.8,11.2-13.9,19.6-21.9,19.6-15.3,0-26.1-20.4-26.1-42.4V60.9c-16.2,11.1-28.6,33-50,33-29.1,0-40.6-58.7,0-58.7,27.6,0,41.2,4,53,10a37.843,37.843,0,0,1,10.1-15.8,13.822,13.822,0,0,1,4.7-3.3,32.936,32.936,0,0,1,3.9-1.7c7.1-2.6,17.3-4.4,28.7-4.8,2.1-.1,4.2-.1,6.3-.1a19.6,19.6,0,1,1,20.7,19.6,96.586,96.586,0,0,1-21.9,3.7,41.887,41.887,0,0,1,1.3,10.5,59.254,59.254,0,0,1-1.1,10.9,9.075,9.075,0,0,0-6.7-3.6,11.709,11.709,0,0,0-11.7,11.7C113.413,80,117.913,85.6,124.313,86Z" transform="translate(0 0)"/></g><g transform="translate(0 355.396)"><path class="p" d="M445.1,380.8l71.6,246.9,33.7,185.4h33.9L550.5,380.8Z" transform="translate(-359.003 -380.8)"/><path class="n" d="M412.9,380.8c5,128.3,3,198.2,1.9,209.9S407.3,680.4,364,817h35.2c57.3-131.1,77.3-209.1,83.9-226.3s26-87.2,54.3-209.9H412.9Z" transform="translate(-359.003 -380.8)"/><path class="l" d="M443.5,380.8q27.9,127.5,96.7,406.9h49.5c3.7-191.2-11.9-317-38.8-406.9H443.5Z" transform="translate(-359.003 -380.8)"/><path class="j" d="M412.6,380.8c4.9,128.3-7.8,254.6-47.1,408.9h52.8C475.7,660.6,516.9,534.9,545,380.8H412.6Z" transform="translate(-359.003 -380.8)"/><g transform="translate(0 426.436)"><path class="o" d="M271.4,634.9l1.9-31.3c11.4,3.3,25.6,2,42.7-3.9,18.4,13,41.5,21.9,69.5,26.7h0a3.929,3.929,0,0,1,3.2,4.5c0,.1-.1.3-.1.4l-2.7,9.5H275.2Z" transform="translate(-271.4 -599.7)"/></g><g transform="translate(183.832 426.436)"><path class="o" d="M357.2,634.9l1.9-31.3c11.4,3.3,25.6,2,42.7-3.9,18.4,13,41.5,21.9,69.5,26.7h0a3.929,3.929,0,0,1,3.2,4.5c0,.1-.1.3-.1.4l-2.7,9.5H361Z" transform="translate(-357.2 -599.7)"/></g></g><g transform="translate(83.653 135.602) rotate(10)"><path class="n" d="M0,69.235l67.9-37.2q16.95-20.1,33.4-31.2c3.3-1.4,9.2-2.2,3.7,7.5s-10.8,20.2-8,23.2,9.7-1.2,13.1,3.8c2.2,3.3-9.7,8.6-35.7,15.7l-49.3,45.2Zm106.4,31.4,29.8-16.4q6.3-23.85,15-24c4.5-2.1-3.3,18,5.2,16.3s29.2-17.1,32.7-14c5.3,4.6.6,18.8-5,25.9-10.4,13.2-18.9,17.7-40.1,23.6-11.1,3.1-23.1,9.3-35.9,18.6Z" transform="translate(159.237 14.165)"/><path class="q" d="M7.726,26.8c23.8-.3,55.5-5.3,89.3-26.8l13.3,29.6c-23.3,23.2-56.2,42.2-84.9,41.4C2.826,70.4-8.674,43,7.726,26.8Z" transform="translate(118.511 48.4)"/><path class="r" d="M158.237,122.7q37.8,9.45,127-22.3c14.7,30.5,21.6,52.2,20.4,65.2-51,26.6-94.7,38.5-130.7,39.3,1.1,21.4-1.5,41.7-10.2,60.3-18,38.2-123.1,2.8-158.4,9.8-22.1-71.9,20.7-101.1,20.7-147.1,0-50.4,40.5-127.9,46.4-127.9h54.3C130.837,38.4,145.837,80.8,158.237,122.7Z" transform="translate(0 0)"/></g></g></g><g transform="translate(769.55 189.513)"><g transform="translate(487.933 698.887) rotate(180)"><g transform="translate(111.61 514.9)"><g transform="translate(35.29)"><path class="s" d="M17,79.7C7.5,90.9,1,104.6,2.1,119.9c3.1,44.3,64.7,34.5,76.7,12.2s10.6-79-4.9-83c-6.2-1.6-19.3,2.3-32.7,10.4L49.6,0H0Z"/></g><path class="o" d="M15.79,68.359a15.166,15.166,0,0,0-3.2,6c-.8,2.2-1.5,4.5-2.1,6.8-1,4.7-1.1,10,2.3,13.6,2.7,2.9,6.7,4.2,10.3,4.5a19.821,19.821,0,0,0,7.3-.9c2.3-.8,4.3-2.3,6.6-3.2.1,5,.9,10.3,3.5,14.5a14.3,14.3,0,0,0,10.8,7,21.3,21.3,0,0,0,13.1-2.6c1-.6,2-1.1,3-1.8a9.386,9.386,0,0,1,2.6-1.4c1.1-.2,1.6.4,2.3,1.1a15.458,15.458,0,0,0,2.7,2.4c4.3,3.1,9.9,4.4,14.8,2.5a13.077,13.077,0,0,0,6-4.4c1.4-1.8,2.4-4.7,4.3-5.9.8-.5,1.4.2,2.1.7,1.1.8,2.2,1.7,3.3,2.4a14.616,14.616,0,0,0,5.1,2.3c2.7.6,6.3.5,7.1-3a13.41,13.41,0,0,0,0-4c-.1-1.8-.3-3.6-.4-5.4-.1-1.4-.3-2.7-.5-4-.1-.7-.6-2.1-.3-2.8.4-.9,2.2-.4,2.9-.4a11.29,11.29,0,0,0,4.4-1,4.722,4.722,0,0,0,2.7-2.5,4.5,4.5,0,0,0,.1-2.3,6.555,6.555,0,0,1,.1-2.4c2,1,9,3.2,9.9-.4.3-1.2-.4-2.6-.9-3.6a33.25,33.25,0,0,0-3.3-5,46.113,46.113,0,0,0-8.7-8.4,5.716,5.716,0,0,0,1.5-9.5,6.979,6.979,0,0,0-5.2-1.5,18.326,18.326,0,0,1-2.1.2,2.934,2.934,0,0,0-1-.3,26.368,26.368,0,0,0-7.9,1,26.648,26.648,0,0,0-12.1,6.3,3.888,3.888,0,0,1-2.8,1.3c-1,0-2.1-.3-3.1-.3-2.7-.1-5.2,1.3-7.8,2.2a30.506,30.506,0,0,0-2.5-10.3c-1.1-2.5-3.6-2.9-5.9-3.1-7.5-.7-15.1.1-22.7.1,7.3-1.7,14.9-2.3,22.1-4.3,3.3-.9.8-3.1-.6-4.6a26.421,26.421,0,0,1-5.2-8.9c-3.6,4.7-9.9,7.7-15.5,6.3-6.2-1.6-10.5-10-6.6-16,2.3-3.5,6.4-4.8,9.9-6.3-2.7-2.8-3.3-6.9-5-10.4-.8-1.7-1.9-3.7-3.7-4.3a3.861,3.861,0,0,1-2-.8c-.6-.7-.8-1.4-1.6-2a9.208,9.208,0,0,0-11.4.9c-2.6,2.7-2,7,.3,9.7-3.5,1.5-9.9,3.3-8.5,8.8-7.6.5-26.1,12.8-15.9,21.9-5.6,3.2-10.8,10.9-7.2,17.7,2.8,5.2,9.3,7.6,14.6,7.8" transform="translate(0 66.241)"/></g><path class="d" d="M57.1,256.4H216.9L237.8,0H0Z"/><path class="b" d="M57.1,256.4h49.1L135.7,0H0Z"/><path class="s" d="M140.3,291.7c17,10.2,45.6-2.9,45.6-17.5-.1-43.8-40-250-42.1-263.1-2.1-13-24.4-16.5-25.7,0-2.1,26.2-5.9,116.7-2.1,158.6,1.6,17.3,3.3,33.8,5,48.5Q89.5,161.5,23.8,55.6L0,66.5Q28.05,158.9,46,197c20.5,43.5,39.7,80.7,47.8,93.8C106.4,311.4,128.6,304.2,140.3,291.7Z" transform="translate(258.7 8.699)"/><path class="r" d="M0,19.2,81.7,212.8c19.6,31.5,74.5-6.4,67.8-24.7C134.3,146.6,57.2,12.4,52.7,0Z" transform="translate(260.3 90.2)"/><g transform="matrix(0.866, -0.5, 0.5, 0.866, 237.644, 62.998)"><path class="t" d="M3.5,30.2C1.2,24,0,19.4,0,16.3A97.589,97.589,0,0,1,1.9,0H118.5c3,10,1.3,15.4-5.2,16.2s-12,1.5-16.3,2.2L42.8,42.6a2.014,2.014,0,0,1-2.7-1v-.1L36.6,33c-6-2.8-11-4.2-14.7-4.2-3.1,0-7.3,1.2-12.7,3.7h0a4.172,4.172,0,0,1-5.5-2C3.6,30.4,3.6,30.3,3.5,30.2Z"/></g><g transform="translate(368)"><path class="t" d="M3.5,30.2C1.2,24,0,19.4,0,16.3A97.58,97.58,0,0,1,1.9,0H118.5c3,10,1.3,15.4-5.2,16.2s-12,1.5-16.3,2.2L42.8,42.6a2.014,2.014,0,0,1-2.7-1v-.1L36.6,33c-6-2.8-11-4.2-14.7-4.2-3.1,0-7.3,1.2-12.7,3.7h0a4.172,4.172,0,0,1-5.5-2C3.6,30.4,3.6,30.3,3.5,30.2Z"/></g><path class="u" d="M353.1,195.2C353.1,140.3,327,12.1,327,0H270.9q12.3,171.45,8.7,173.4c-3.6,1.8-146.9-14.3-189.9-14.3-62,0-87.6,39.1-89.7,111.5H122.8c25-2.7,155.4-29,203.9-38C347.4,228.6,353.1,210.3,353.1,195.2Z" transform="translate(97.2 72.8)"/><g transform="translate(70.778 260.9)"><path class="v" d="M0,64.7,71.8,104q17.85,21.3,35.3,33c3.5,1.5,9.7,2.4,3.9-7.9s-11.4-21.3-8.5-24.5,10.3,1.3,13.8-4c2.3-3.5-10.2-9-37.7-16.6L26.4,36.2ZM112.4,31.6l31.5,17.3c4.4,16.8,9.7,25.3,15.9,25.4,4.7,2.2-3.5-19.1,5.5-17.2,9,1.8,30.8,18.1,34.6,14.8,5.6-4.9.6-19.9-5.3-27.3-10.9-13.9-20-18.7-42.4-25-11.7-3.3-24.4-9.8-38-19.6Z" transform="translate(168.322 146.5)"/><path class="q" d="M8.2,46.823c25.1.3,58.7,5.6,94.4,28.3l14-31.3C91.9,19.323,57.2-.777,26.9.023,3,.623-9.2,29.623,8.2,46.823Z" transform="translate(125.222 173.177)"/><path class="r" d="M167.222,169.7q40.05-10.05,134.3,23.5,23.4-48.3,21.6-68.9c-53.9-28.2-100.1-40.7-138.1-41.5,1.2-22.6-1.5-44.1-10.8-63.7-19-40.4-130.1-3-167.5-10.3-23.4,76,21.8,106.9,21.9,155.5,0,53.3,42.8,135.2,49.1,135.2h57.4C138.222,258.8,154.122,214,167.222,169.7Z"/></g></g></g><g transform="translate(1024.107 17.443)"><g transform="translate(0)"><g transform="matrix(0.966, -0.259, 0.259, 0.966, 257.245, 29.081)"><g transform="translate(3.341 9.958)"><path class="s" d="M44.9,163.463,0,137.563l38.4-48.9c-16.3.2-30.2-3.1-34.9-7.8-11.9-11.7,16.1-63.2,38.5-76.9,22.4-13.8,83.1,9.7,63,50.9-7,14.3-19.9,23.2-34.3,28.3Z" transform="translate(0)"/></g><path class="o" d="M63.047,27.739c-19.9-11.1-20.2-15.9-13.4-27.7,4.5-.4,17.9,2.3,31.1,8.5a37.909,37.909,0,0,1,20.5,13.9c7.6,7.8,12.1,17.7,9.5,29.9.2,28-21.7,44.4-38.5,44.6-1.1-5.8-1.8-11.3-2.3-16.4a12.809,12.809,0,0,0,3.2-23.6,9.146,9.146,0,0,0-1.4-.7q-19.65,31.8-29.1,40.1c-9.7,8.6-31.9-.8-39.2-4.9-7.1-4.1-1.4-11,.9-15.1,1.4-2.5,7,5,9.4.9,2.4-4.2-5.5-12.2-5.9-16-.5-4.6,1.3-9.4,4.8-7.4,4.8,2.8,10.2,15.2,21.3,21.5,7.4,4.3,18.8-5,34.2-27.7C67.647,39.639,66.447,33.039,63.047,27.739Z"/></g><g transform="translate(37.335 358.193)"><path class="v" d="M1357.6,335.4,1249,828.3h28.1l71-225.8,106-267.1Z" transform="translate(-1167.043 -335.3)"/><path class="s" d="M1369.9,335.4c25.5,89.8,57.3,240.2,67.1,256.5q9.75,16.35,220.8,138.9l19.3-20.6q-178.8-142.95-181.5-148.8c-2.6-5.9-19.1-132.2-20.2-226.1H1369.9Z" transform="translate(-1167.043 -335.3)"/><g transform="matrix(0.643, 0.766, -0.766, 0.643, 514.346, 358.689)"><path class="t" d="M5.837,7.4a4.24,4.24,0,0,0-1.1,6h0c3.5,5.1,5.6,9.2,6.1,12.4.7,3.9.1,9.2-1.7,15.9l-8.1,5.1h-.1a2.222,2.222,0,0,0-.6,3l34.7,51.3c1.4,4.3,3.2,9.8,5.2,16.3s7.9,7.4,17.6,2.5Q37.887,6.65,36.737,0a116.091,116.091,0,0,0-17.1,1c-3.2.6-7.7,2.6-13.6,6.1C6.037,7.3,5.937,7.4,5.837,7.4Z" transform="translate(0 0)"/></g><g transform="translate(0 469.635)"><path class="t" d="M1063.1,603a4.27,4.27,0,0,0-5.7-2.1h0c-5.6,2.6-10.1,3.9-13.3,3.9-3.9,0-9.1-1.5-15.4-4.4l-3.6-8.8v-.1a2.117,2.117,0,0,0-2.8-1.1l-56.6,25.2c-4.5.7-10.2,1.4-17,2.3-6.8.8-8.6,6.5-5.5,16.9h121.7a106.594,106.594,0,0,0,1.9-17c0-3.2-1.2-8-3.6-14.5A.368.368,0,0,0,1063.1,603Z" transform="translate(-941.732 -590.206)"/></g><path class="l" d="M1467.8,335.4H1348.3l-98.8,455.2L1382.8,805Z" transform="translate(-1167.043 -335.3)"/><path class="j" d="M1507.5,522q-3.45-8.25-13.5-186.6H1359.5q18.3,202.65,41.3,248.5,22.95,45.9,161.2,196.3L1649.5,677Q1511.05,530.3,1507.5,522Z" transform="translate(-1167.043 -335.3)"/></g><g transform="translate(0 192.836) rotate(-10)"><path class="s" d="M138.134,40.4l-73.7,3.1c-25.8,14.6-39.2,19.7-40,15.4-1.3-6.5,7.4-8.6,7.2-13.1s-12.5-8.5-24.3-11.8c-11.9-3.3-6.6-7.2-2.9-8.7,14.3-2.7,31.1-3.3,50.4-1.6L136.734,0Zm225.5,190.1c.8,6.9,15.8,32.6,27,48.2,4.5,6.3.1,10.6-2.6,11.2-22.5,4.6-29.8-13.2-43-26.3-14.5-14.4-21.3,8.9-32.9-2.3,7.7-7.9,24-21.9,23.6-35.2q-.3-8.85,6.3-149.2l42.4,15.3C369.534,174.9,362.634,221.1,363.634,230.5Z" transform="translate(0 141.8)"/><path class="w" d="M10.6,188.6,0,157.9C100.5,130,166.3,32.3,251.7,0l16.4,9.4C237.2,103.3,155.2,221.9,10.6,188.6Z" transform="translate(60.134 3.6)"/><path class="g" d="M185.332,9.3,138.032,0c-30.7,84.5-100.2,131.6-133.6,186.6-2.9,4.8-7.9,14.5-.8,17.1q49.65,18.15,155.2,56.5C187.132,159.7,200.832,82.1,185.332,9.3Z" transform="translate(166.202 0)"/><path class="x" d="M160.737,365.8l-33.3-12.1a445.517,445.517,0,0,1-5.3-49.9L.037,259.3q-2.25-77.85,132-259.3l14.3,4.3c1.3.3,2.8.7,4.3,1.2,27.9,10.1,47.4,4.9,63,16.5,15.5,11.7,15.6,30-11.5,53.4-6.3,5.4-13,7.9-20.2,7.4Q220.337,216.45,160.737,365.8Z" transform="translate(204.396 5)"/><path class="b" d="M45.3,79.3,0,62.8Q20.85,45.85,44.1,0C43.6,30.2,44,56.7,45.3,79.3Z" transform="translate(281.134 229.4)"/></g></g></g></g></svg>