<svg xmlns="http://www.w3.org/2000/svg" width="52.739" height="52.739" viewBox="0 0 52.739 52.739">
  <g id="noun_avatar_2309777" transform="translate(-3.767 -0.53)">
    <g id="Group_197" data-name="Group 197" transform="translate(3.767 0.53)">
      <path id="Path_685" data-name="Path 685" d="M26.9,289.063a26.37,26.37,0,1,0,26.37,26.37A26.4,26.4,0,0,0,26.9,289.063Zm0,9.418a9.418,9.418,0,1,1-9.418,9.417A9.446,9.446,0,0,1,26.9,298.481Zm-7.534,22.6H34.433a9.435,9.435,0,0,1,9.41,9.293,22.573,22.573,0,0,1-33.889,0,9.435,9.435,0,0,1,9.41-9.293Z" transform="translate(-0.529 -289.063)" fill="#707070"/>
    </g>
  </g>
</svg>
