<svg xmlns="http://www.w3.org/2000/svg" width="1279.609" height="533.435" viewBox="0 0 1279.609 533.435">
  <g id="logo-white-01" transform="translate(124.28 -348.361)" opacity="0.1">
    <g id="Group_1" data-name="Group 1" transform="translate(-124.28 348.361)">
      <path id="Path_1" data-name="Path 1" d="M234.56,254.38l32.917-8.745V61.987H714.652v51.142l36.4-13.87V29H234.56Z" transform="translate(-145.64 -8.644)" fill="#65d97b"/>
      <path id="Path_2" data-name="Path 2" d="M234.56,334.3l32.917-10v52H712.921V203l38.129-7V416.99H234.56Z" transform="translate(-145.64 116.445)" fill="#65d97b"/>
      <path id="Path_3" data-name="Path 3" d="M233.32,263.955s773-273.846,972.323-244.375C1205.643,19.58,250.653,274.362,233.32,263.955Z" transform="translate(-146.568 -17.361)" fill="#65d97b"/>
      <path id="Path_4" data-name="Path 4" d="M184.21,378.243S1253.621,16,1463.33,41.992C1463.33,41.992,154.773,400.771,184.21,378.243Z" transform="translate(-183.721 0.088)" fill="#65d97b"/>
      <path id="Path_5" data-name="Path 5" d="M233.32,384.507s798.993-291.162,972.323-251.3C1205.643,133.205,307.846,372.386,233.32,384.507Z" transform="translate(-146.568 66.602)" fill="#65d97b"/>
    </g>
  </g>
</svg>
