<?xml version="1.0" encoding="utf-8"?>
<!-- Generator: Adobe Illustrator 22.0.0, SVG Export Plug-In . SVG Version: 6.00 Build 0)  -->
<svg version="1.1" id="Layer_1" xmlns="http://www.w3.org/2000/svg" xmlns:xlink="http://www.w3.org/1999/xlink" x="0px" y="0px"
	 viewBox="0 0 1378.3 1076.5" style="enable-background:new 0 0 1378.3 1076.5;" xml:space="preserve">
<style type="text/css">
	.st0{fill:#C3EAC9;}
</style>
<title>background</title>
<path class="st0" d="M21.4,29.4c29,40.9,58.9,83.4,102.1,109c81.9,48.4,195.8,26.6,268.4,88.1c69.6,59,71.4,170.4,136.4,234.5
	c58.3,57.5,151.2,61.6,219.1,107.5c73.9,49.9,107.5,141,169.8,204.8c72.7,74.4,177.3,105.4,272.1,148.3
	c75.3,34,151.6,84.4,189.1,155H22.1c-12.2,0-22.1-9.9-22.1-22.1c0,0,0,0,0-0.1V0C7.4,9.7,14.4,19.6,21.4,29.4z"/>
</svg>
