<svg xmlns="http://www.w3.org/2000/svg" width="762.051" height="502.411" viewBox="0 0 762.051 502.411">
  <g id="undraw_done_a34v" transform="translate(-249.427 -0.001)">
    <path id="Path_665" data-name="Path 665" d="M274.927,141.3c13.452,51.824,56.85,85.321,97.028,74.891" transform="translate(-25.5 -70.7)" fill="#59d671"/>
    <path id="Path_666" data-name="Path 666" d="M388.8,208.794c-13.6-52.407,11.67-104.231,56.507-115.87" transform="translate(-42.346 -63.305)" fill="#43a047"/>
    <path id="Path_667" data-name="Path 667" d="M307.456,138.773c12.778,49.228,43.85,83.68,69.471,77.03" transform="translate(-30.473 -70.315)" fill="#43a047"/>
    <path id="Path_668" data-name="Path 668" d="M388.532,203.449C371.15,136.485,399.02,71.413,450.844,57.961" transform="translate(-42.077 -57.96)" fill="#59d671"/>
    <path id="Path_669" data-name="Path 669" d="M371.616,232.891s10.226-2.993,12.759-6.012,14.6-8.97,16.289-5.622,20.073,13.625,8.458,16.74-27.513,5.207-31.1,4.123S371.616,232.891,371.616,232.891Z" transform="translate(-40.281 -82.773)" fill="#a8a8a8"/>
    <path id="Path_670" data-name="Path 670" d="M409.009,238.968c-11.614,3.115-27.513,5.207-31.1,4.123-2.735-.825-5.016-5.743-5.949-8.042l-.341.1s2.811,8.145,6.4,9.228,19.49-1.008,31.1-4.123c3.353-.9,4.2-2.4,3.679-4.149C412.613,237.3,411.5,238.3,409.009,238.968Z" transform="translate(-40.281 -85.033)" opacity="0.2"/>
    <rect id="Rectangle_195" data-name="Rectangle 195" width="682.783" height="395.607" transform="translate(328.695 106.805)" fill="#fff"/>
    <rect id="Rectangle_196" data-name="Rectangle 196" width="374.429" height="196.109" transform="translate(344.79 226.885)" fill="#6c63ff" opacity="0.3"/>
    <rect id="Rectangle_197" data-name="Rectangle 197" width="150.179" height="8.308" transform="translate(748.022 218.336)" fill="#3f3d56"/>
    <rect id="Rectangle_198" data-name="Rectangle 198" width="218.558" height="8.308" transform="translate(748.022 233.673)" fill="#3f3d56"/>
    <rect id="Rectangle_199" data-name="Rectangle 199" width="150.179" height="8.308" transform="translate(748.022 270.739)" fill="#3f3d56"/>
    <rect id="Rectangle_200" data-name="Rectangle 200" width="150.179" height="8.308" transform="translate(748.022 332.088)" fill="#3f3d56"/>
    <rect id="Rectangle_201" data-name="Rectangle 201" width="218.558" height="8.308" transform="translate(748.022 286.076)" fill="#3f3d56"/>
    <rect id="Rectangle_202" data-name="Rectangle 202" width="218.558" height="8.308" transform="translate(748.022 301.413)" fill="#3f3d56"/>
    <rect id="Rectangle_203" data-name="Rectangle 203" width="218.558" height="8.308" transform="translate(748.022 316.751)" fill="#3f3d56"/>
    <rect id="Rectangle_204" data-name="Rectangle 204" width="78.604" height="21.728" transform="translate(748.022 369.154)" fill="#43a047"/>
    <rect id="Rectangle_205" data-name="Rectangle 205" width="374.429" height="196.109" transform="translate(328.695 206.554)" fill="#3f3d56"/>
    <ellipse id="Ellipse_122" data-name="Ellipse 122" cx="42.371" cy="42.448" rx="42.371" ry="42.448" transform="translate(480.505 266)" fill="#fff"/>
    <path id="Path_683" data-name="Path 683" d="M588.585,363.423a50.638,50.638,0,1,0,50.638,50.638,50.638,50.638,0,0,0-50.638-50.638Zm-10.4,77.637-25.952-25.952,7.279-7.279,18.7,18.7,39.464-39.464,7.279,7.279-46.768,46.719Z" transform="translate(-65.709 -104.658)" fill="#43a047"/>
  </g>
</svg>
