<svg xmlns="http://www.w3.org/2000/svg" width="1066.619" height="887.31" viewBox="0 0 1066.619 887.31">
  <g id="contact" transform="translate(-855.49 -164.009)">
    <g id="Group_186" data-name="Group 186">
      <path id="Path_615" data-name="Path 615" d="M978.4,521.6" fill="#6c63ff"/>
      <path id="Path_616" data-name="Path 616" d="M978.4,521.6" opacity="0.1"/>
      <path id="Path_617" data-name="Path 617" d="M978.4,512" fill="#6c63ff"/>
    </g>
    <g id="Group_188" data-name="Group 188" transform="translate(199.518 109.27)">
      <path id="Path_618" data-name="Path 618" d="M1372.556,637.541,1148.584,249.469a7.051,7.051,0,0,0-9.761-2.614,6.849,6.849,0,0,0-2.615,2.614L912.15,637.541a7.093,7.093,0,0,0,2.44,9.761,8.071,8.071,0,0,0,3.747,1.046h66.756a7.123,7.123,0,0,1,7.146,7.146v82.878a7.068,7.068,0,0,0,7.146,7.146h87.148a7.068,7.068,0,0,0,7.146-7.146v-40a7.122,7.122,0,0,1,7.146-7.146h82.965a7.068,7.068,0,0,1,7.146,7.146v40a7.068,7.068,0,0,0,7.146,7.146h87.148a7.068,7.068,0,0,0,7.146-7.146V655.407a7.068,7.068,0,0,1,7.146-7.146h66.756a7.122,7.122,0,0,0,7.146-7.146A5.355,5.355,0,0,0,1372.556,637.541Zm-312.34,42.964a7.439,7.439,0,0,1-5.055,2.179h-31.373a7.146,7.146,0,1,1,0-14.292h31.461a7.122,7.122,0,0,1,7.146,7.146,6.422,6.422,0,0,1-2.178,4.967Zm205.845,0a7.439,7.439,0,0,1-5.055,2.179h-31.374a7.146,7.146,0,0,1,0-14.292h31.461a7.122,7.122,0,0,1,7.146,7.146,6.423,6.423,0,0,1-2.179,4.967Z" transform="translate(-32.792 -24.563)" fill="#6c63ff" opacity="0.1"/>
      <g id="Group_187" data-name="Group 187" transform="translate(1291.827 183.952)" opacity="0.1">
        <path id="Path_619" data-name="Path 619" d="M1554.546,465.1c-6.275,19.957-12.9,39.914-19.87,59.261a55.464,55.464,0,0,1-2.876-17.778C1531.8,487.236,1541.3,470.852,1554.546,465.1Z" transform="translate(-1404.384 -236.689)" fill="#3f3d56"/>
        <path id="Path_620" data-name="Path 620" d="M1581.422,253.024q-18.3,90.2-45.666,178.306c-6.275,19.957-12.9,39.914-19.87,59.261-7.843,22.049-16.21,43.487-24.924,63.967-83.4-30.589-126.1-122.966-95.428-206.193a158.594,158.594,0,0,1,24.4-43.749,159.852,159.852,0,0,1-34.25-99.262C1385.6,194.547,1497.324,222.871,1581.422,253.024Z" transform="translate(-1385.595 -203.006)" opacity="0.1"/>
      </g>
      <path id="Path_621" data-name="Path 621" d="M1102.951,904.881c91.419-63.27,265.977-156.257,432.867-220.486,2.963-2.614,6.013-5.316,9.063-8.018,68.324-60.481,159.743-135.865,170.724-218.394,10.807-82.617-58.651-172.467-143.621-221.009-84.97-48.367-185.539-55.688-286.2-55.775-100.656-.174-201.574,6.536-251.772,61.178-50.023,54.555-49.326,157.3-56.821,250.9-7.582,93.685-23.617,178.48.7,257.872C997.763,816.512,1045.171,878.3,1102.951,904.881Z" transform="translate(-39.709 -16.252)" fill="#a4eaad"/>
      <path id="Path_622" data-name="Path 622" d="M1540.71,585.928c-8.8-3.05-37.91-41.4-37.91-86.974,0-52.9,55.949-153.12,61.353-188.677,3.4-22.659,18.65-222.577,134.732-222.577,63.27,0,68.586,123.664,68.586,179,0,129.241-187.979,239.31-187.979,306.5A276.392,276.392,0,0,1,1540.71,585.928Z" transform="translate(-108.83 -4.236)" fill="#74d5de"/>
      <path id="Path_623" data-name="Path 623" d="M1562.7,600.978c0-103.62,77.388-292.383,145.451-358.878" transform="translate(-116.528 -24.079)" fill="none" stroke="#56cad8" stroke-linecap="round" stroke-miterlimit="10" stroke-width="4"/>
      <path id="Path_624" data-name="Path 624" d="M1047.049,856.4c-5.839-1.743-22.049-22.223-22.049-48.716,0-25.535,7.146-62.66,7.146-97.083,0-19.173-7.146-25.97-7.146-48.8,0-36.341,34.424-47.5,46.537-47.5,17.778,0,27.278,15.251,27.278,23.269,0,11.242-3.137,19.783-3.137,32.245,0,24.4,8.541,27.365,7.582,48.28-2.615,61.353-28.149,121.136-50.372,134.732Z" transform="translate(-47.426 -71.912)" fill="#56cad8"/>
      <path id="Path_625" data-name="Path 625" d="M999.623,830.76c7.233-6.275-33.378-204.363-68.673-239.4C892.6,553.279,861.057,533.06,850.6,520.6c-18.475-22.136-30.241-105.8-111.55-105.8-21.526,0-72.246,17.778-81.31,92.987-2.963,24.663-8.366,62.485,43.051,117.3,34.685,36.864,77.911,24.14,120.352,64.141,30.415,28.759,26.232,72.246,54.729,108.849C898.531,827.361,957.617,867.014,999.623,830.76Z" transform="translate(0 -46.273)" fill="#4cbcc1"/>
      <path id="Path_626" data-name="Path 626" d="M1006.427,852.353c0-49.762-156.867-274.169-219.527-306.153" transform="translate(-16.826 -63.16)" fill="none" stroke="#56cad8" stroke-linecap="round" stroke-miterlimit="10" stroke-width="4"/>
      <path id="Path_627" data-name="Path 627" d="M1049.943,870.227c-1.569-11.765-8.192-111.9,10.458-148.327" transform="translate(-50.319 -85.74)" fill="none" stroke="#74d5de" stroke-linecap="round" stroke-linejoin="round" stroke-width="4"/>
      <path id="Path_628" data-name="Path 628" d="M1053.9,1020.675C1100.873,953.658,1520.057,724.98,1772,682.8" transform="translate(-51.14 -80.715)" fill="none" stroke="#6d6d6d" stroke-linecap="round" stroke-miterlimit="10" stroke-width="3"/>
      <path id="Path_629" data-name="Path 629" d="M1205.524,192.2H1307.4a12.683,12.683,0,0,1,12.724,12.724V416.172A12.683,12.683,0,0,1,1307.4,428.9H1205.524a12.683,12.683,0,0,1-12.724-12.724V205.011A12.757,12.757,0,0,1,1205.524,192.2Z" transform="translate(-68.99 -17.666)" fill="#fd8369"/>
      <path id="Path_630" data-name="Path 630" d="M1194.248,907.2v27.626H1119.3V923.151l46.45-21.351Z" transform="translate(-59.545 -108.86)" fill="#333"/>
      <path id="Path_631" data-name="Path 631" d="M1382.773,877.6c3.747,8.541,12.724,30.415,12.724,30.415l-37.387,23.53h-33.9L1320.2,918.56l42.529-32.506Z" transform="translate(-85.363 -105.75)" fill="#333"/>
      <ellipse id="Ellipse_107" data-name="Ellipse 107" cx="31.635" cy="39.914" rx="31.635" ry="39.914" transform="translate(1136.185 89.564)" fill="#b28b67"/>
      <path id="Path_632" data-name="Path 632" d="M1198.6,58.278c-4.1-5.665-15.861-4.445-26.145,3.05a34.359,34.359,0,0,0-9.761,10.284,4.374,4.374,0,0,0-1.046-.174c-5.055,0-88.02,44.446-87.149,64.751.7,20.48,28.585,53.335,38.345,59.61,0,0,43.749-20.48,41.483-27.1-2.353-6.623-27.626-27.626-31.983-31.809,5.229-2.7,46.8-44.01,51.592-48.629a34.8,34.8,0,0,0,13.682-6.188C1197.727,74.662,1202.694,64.03,1198.6,58.278Z" transform="translate(-53.786)" fill="#997659"/>
      <path id="Path_633" data-name="Path 633" d="M1179.493,246.919c9.586-7.669-6.275-72.159-23.181-73.728s-46.537,30.328-45.317,39.478C1112.04,221.559,1155.266,266.179,1179.493,246.919Z" transform="translate(-58.472 -15.216)" fill="#f9a64b"/>
      <path id="Path_634" data-name="Path 634" d="M1145.9,432.109c0,10.632,5.316,377.963,14.9,409.772,8.541,4.183,30.764,5.316,38.258,2.092,7.495-3.137,54.816-406.112,54.816-423.8S1145.9,432.109,1145.9,432.109Z" transform="translate(-62.963 -46.239)" fill="#56cad8"/>
      <path id="Path_635" data-name="Path 635" d="M1342.023,830.624c-10.2-15.948-142.139-325.151-152.423-401.406,10.807-8.366,91.419-21.7,98.042-6.536,6.536,15.251,84.97,392.168,82.181,397.136C1367.122,824.7,1349.6,832.28,1342.023,830.624Z" transform="translate(-68.579 -46.399)" fill="#74d5de"/>
      <path id="Path_636" data-name="Path 636" d="M1229.817,199.7c68.5,0,64.228,189.548,49.326,201.139s-131.159,12.2-138.566,3.66C1133.17,396.046,1115.653,199.7,1229.817,199.7Z" transform="translate(-61.562 -18.63)" fill="#ff9b21"/>
      <path id="Path_637" data-name="Path 637" d="M1286.208,117.328c0-8.1-7.756-13.857-7.756-18.388s2.615-12.462-3.224-18.3c-7.146-6.972-18.65-4.1-28.846-4.1-9.673,0-14.9-11.242-28.149-11.242-8.8,0-7.669,11.329-10.894,14.205-2.44,2.092-21.438,6.188-21.438,14.9,0,9.673.174,22.659,20.393,22.659,1.394-4.619,6.362-14.9,12.114-19.434,2.963,1.22,19.086,8.018,23.094,9.151s9.848,18.3,16.035,20.393,6.623,13.421,11.155,12.985C1273.049,139.725,1286.208,137.808,1286.208,117.328Z" transform="translate(-68.104 -1.357)" fill="#191847"/>
      <circle id="Ellipse_108" data-name="Ellipse 108" cx="8.366" cy="8.366" r="8.366" transform="translate(1186.644 124.162)" fill="#b28e70"/>
      <path id="Path_638" data-name="Path 638" d="M1257.145,208.938c-1.394,4.619-29.369-.959-28.846-6.188l4.793-46.45,33.814,7.233C1266.906,163.708,1258.452,204.406,1257.145,208.938Z" transform="translate(-73.552 -13.052)" fill="#b28b67"/>
      <path id="Path_639" data-name="Path 639" d="M1439.954,413.171a22.007,22.007,0,0,0-11.678-6.1c-14.205-22.92-62.224-93.336-83.488-118.871-15.338,11.068-33.988,30.241-33.988,30.241,7.756,8.715,66.233,77.911,97.345,105.014a21.644,21.644,0,0,0,6.362,15.251c7.844,7.843,19.957,8.541,27.016,1.569C1448.495,433.215,1447.8,421.1,1439.954,413.171Z" transform="translate(-84.155 -30.003)" fill="#997659"/>
      <path id="Path_640" data-name="Path 640" d="M1273.413,234.682c27.539-20.393,72.769,29.02,71.985,41.918-.7,12.985-35.557,41.831-47.5,41.831C1283.522,318.344,1250.057,251.937,1273.413,234.682Z" transform="translate(-78.316 -22.499)" fill="#f9a64b"/>
    </g>
  </g>
</svg>
