<svg id="Group_197" data-name="Group 197" xmlns="http://www.w3.org/2000/svg" width="70" height="70" viewBox="0 0 70 70">
  <circle id="Ellipse_57" data-name="Ellipse 57" cx="35" cy="35" r="35" fill="#43a047"/>
  <path id="edit001_-_E069" data-name="edit001 - E069" d="M18.375-48.39v.03a3.715,3.715,0,0,0-2.73-1.14,3.817,3.817,0,0,0-2.7,1.14l-5.13,5.13h-27.33V-10.5h32.79V-37.86l5.1-5.1A3.786,3.786,0,0,0,18.375-48.39Zm-2.1,3.33L-2.835-25.98h-1.11v-1.26l18.99-19.02a.77.77,0,0,1,.6-.24.794.794,0,0,1,.63.24v.03A.814.814,0,0,1,16.275-45.06Zm-6,31.56h-26.79V-40.23H4.815L-6.945-28.5v5.52h5.37l11.85-11.88Z" transform="translate(37 64.5)" fill="#fffbfb"/>
</svg>
