<svg xmlns="http://www.w3.org/2000/svg" width="1146.154" height="904.617" viewBox="0 0 1146.154 904.617"><defs><style>.a{fill:#a4eaad;}.b{fill:#de8e68;}.c{fill:#56cad8;}.d{fill:#74d5de;}.e{fill:#fcc486;}.f{fill:#fed385;}.g{fill:#d37c59;}.h{fill:#dfdfdf;}.i{fill:#f2f2f2;}.j{fill:#fed892;}.k,.l{fill:#fff;}.k{font-size:98px;font-family:ArialMT, Arial;}.m{fill:none;stroke:#000;stroke-linecap:round;stroke-linejoin:round;stroke-miterlimit:10;stroke-width:2.5px;}</style></defs><g transform="translate(-647.081 -61.561)"><path class="a" d="M1148.941,69.939c51.523-19.161,114.322-2.659,167.953,21.361,168.411,75.542,291.076,218.926,388.529,364.968,35.3,52.9,68.85,108.088,82.051,167.128,27.045,120.189-43.455,244.6-163.278,288.234-40.7,14.852-85.535,20.9-130.365,24.295-79.76,6.051-162.269,3.667-241.387-18.7-56.382-15.952-109.738-41.713-160.894-70.133C948.626,767.7,818.169,664.651,724.2,538.778c-41.255-55.19-76.092-117.439-77.1-181.155S687.62,229.917,755.92,219.007c28.237-4.492,58.124.183,87.277,4.951,42.905,7.059,86.452,14.485,128.807,11.46,43.822-3.209,100.845-20.352,108.821-62.157C1089.351,128.338,1097.418,89.1,1148.941,69.939Z"/><rect class="b" width="23.378" height="16.044" transform="translate(1334.13 894.487)"/><rect class="b" width="27.32" height="16.044" transform="translate(1181.487 894.487)"/><path class="c" d="M1312.985,568c1.375-.275,21.086,105.154,21.086,105.154l-75.817,263.481H1229.1s28.512-350.85,29.154-362.951C1270.813,575.976,1306.476,569.65,1312.985,568Z" transform="translate(-48.439 -42.148)"/><path class="d" d="M1414.013,532.3c2.475,0,0,404.206,0,404.206h-28.145L1307.3,567.688C1337.737,561.82,1387.609,543.485,1414.013,532.3Z" transform="translate(-54.947 -39.177)"/><path class="b" d="M1252.707,376.78c-2.109,8.709-52.165,57.3-64.449,57.3s-87.827-88.836-96.17-98.92c-62.891-10.085-53.631-14.027-53.631-15.4s42.813-.275,50.056,0c-10.635-8.893-3.392-19.8,0-17.877,1.742,3.942,87.552,75.176,95.07,80.768,10.084-13.11,34.1-33,38.6-34.929C1222.178,347.719,1254.816,368.071,1252.707,376.78Z" transform="translate(-32.532 -19.982)"/><path class="e" d="M1228.091,345.835c6.326,16.96,35.846,41.438,48.772,38.321,10.176-2.384,46.114-57.39,26.495-75.634C1287.223,293.579,1225.25,337.859,1228.091,345.835Z" transform="translate(-48.347 -20.299)"/><path class="f" d="M1260.192,549.7c11,11.276,150.718-30.529,157.685-44.922S1449.6,279.8,1340.5,279.8C1228.93,279.8,1249.19,538.422,1260.192,549.7Z" transform="translate(-50.285 -18.163)"/><path class="g" d="M1328.1,296.847c0,6.142,33,6.142,33,0V248.9h-33Z" transform="translate(-56.678 -15.591)"/><ellipse class="b" cx="37.588" cy="63.074" rx="37.588" ry="63.074" transform="translate(1250.703 124.396)"/><path d="M1292.2,154.88c0,12.835,9.9,24.753,12.56,27.5,0-3.209,3.85-18.794,7.976-22.461,0,19.344,58.4,11.185,62.982,16.685,3.3,3.85,2.75,27.595,2.75,30.437a48.09,48.09,0,0,0,13.752,2.75c7.518,0,11.46-3.667,26.587-3.667,21.911,0,38.413,17.419,62.341,17.419,17.144,0,23.836-25.67,27.5-30.254s22-21.178,22-38.5c0-38.413-47.672-43.088-57.757-43.088-15.86,0-45.839,11.918-62.341,11.918-18.244,0-43.364-9.168-62.341-9.168C1300.543,114.45,1292.292,143.145,1292.2,154.88Z" transform="translate(-53.69 -4.173)"/><rect class="h" width="117.622" height="88.744" transform="matrix(0.075, -0.997, 0.997, 0.075, 1328.493, 569.054)"/><rect class="i" width="117.622" height="88.744" transform="matrix(0.075, -0.997, 0.997, 0.075, 1319.237, 577.578)"/><ellipse class="b" cx="17.51" cy="24.661" rx="17.51" ry="24.661" transform="translate(1355.674 534.928)"/><path class="b" d="M1405.7,393.868c-.55,8.8,20.444,80.4,22,92.778s-5.684,82.051-5.684,84.343,28.053,3.85,28.053,0,8.343-31.445,11.551-80.4S1449.7,384.334,1447.412,379.2C1447.412,379.2,1406.249,385.067,1405.7,393.868Z" transform="translate(-63.135 -26.435)"/><path class="j" d="M1400.907,394.857c17.51,2.75,52.44-10.818,56.015-23.286,2.842-9.9-26.77-67.016-51.8-59.04C1384.589,319.132,1392.656,393.482,1400.907,394.857Z" transform="translate(-62.01 -20.824)"/><path d="M1394.3,983.6V1010l36.3,32.912h18.152l-27.87-52.256V983.6Z" transform="translate(-62.187 -76.737)"/><path d="M1225.439,982.4,1176.3,998.444v10.451h77.468V982.4Z" transform="translate(-44.044 -76.637)"/><circle class="h" cx="62.616" cy="62.616" r="62.616" transform="translate(1444.601 255.861)"/><path class="h" d="M1545.04,343.906l18.427-36.579L1488.2,292.2Z" transform="translate(-70.002 -19.195)"/><path class="h" d="M1137.2,165.8v40.98l74.075-20.444Z" transform="translate(-40.79 -8.675)"/><text class="k" transform="translate(1481.882 351.481)"><tspan x="0" y="0">?</tspan></text><rect class="h" width="143.017" height="99.562" transform="translate(999.232 124.396)"/><circle class="l" cx="6.876" cy="6.876" r="6.876" transform="translate(1096.226 167.301)"/><circle class="l" cx="6.876" cy="6.876" r="6.876" transform="translate(1063.956 167.301)"/><circle class="l" cx="6.876" cy="6.876" r="6.876" transform="translate(1031.594 167.301)"/><path class="m" d="M1406.84,495.325l.734-9.9a5.645,5.645,0,0,1,6.051-5.226h0a5.645,5.645,0,0,1,5.226,6.051l-1.375,18.611a5.645,5.645,0,0,1-6.051,5.226h0a5.645,5.645,0,0,1-5.226-6.051" transform="translate(-63.176 -34.839)"/></g></svg>