<?xml version="1.0" encoding="utf-8"?>
<!-- Generator: Adobe Illustrator 22.0.0, SVG Export Plug-In . SVG Version: 6.00 Build 0)  -->
<svg version="1.1" id="Layer_1" xmlns="http://www.w3.org/2000/svg" xmlns:xlink="http://www.w3.org/1999/xlink" x="0px" y="0px"
	 viewBox="0 0 500 500" style="enable-background:new 0 0 500 500;" xml:space="preserve">
<g>
	<path d="M56.2,124.2v335.4c0,12.9,10.5,23.4,23.4,23.4h319.8c12.9,0,23.4-10.5,23.4-23.4V155.4c0-3.4-2.2-6.3-5.3-7.4l-20.4-6.8
		l13.5-47.1c3.5-12.2-3.3-25-15.5-28.7L276.3,27.9C264,24,250.9,30.8,247,43.2c0,0.1,0,0.1-0.1,0.2l-13.3,43.4l-21.4-7.1V15H71.8v78
		H79l-21.1,26.3C56.8,120.7,56.2,122.4,56.2,124.2z M71.8,202.2h39v187.2h-39V202.2z M407.2,459.6c0,4.3-3.5,7.8-7.8,7.8H79.6
		c-4.3,0-7.8-3.5-7.8-7.8V405h335.4V459.6z M126.4,389.4V202.2h218.4v187.2H126.4z M360.4,389.4V202.2h46.8v187.2H360.4z M87.4,30.6
		H103v31.2h15.6V30.6h15.6v31.2h15.6V30.6h15.6v31.2H181V30.6h15.6v46.8H87.4V30.6z M98.9,93h104.2l33.1,11c2,0.7,4.2,0.5,6-0.5
		c1.9-1,3.3-2.6,3.9-4.6l15.7-51c1.3-4.1,5.6-6.4,9.7-5.2c0,0,0,0,0,0l118.7,37.5c4,1.3,6.3,5.5,5.1,9.6L380,144.1
		c-1.1,4,1.1,8.2,5,9.5l22.1,7.4v25.6H71.8v-59.7L98.9,93z"/>
	<path d="M268.6,114.8l86.5,28.9c0.8,0.3,1.6,0.4,2.5,0.4c3.4,0,6.5-2.3,7.5-5.6l10.6-35.5c1.2-4-0.9-8.1-4.8-9.6l-85.8-31.2
		c-4-1.5-8.5,0.6-10,4.7c-0.1,0.1-0.1,0.3-0.1,0.4l-11.3,37.8C262.4,109.3,264.6,113.5,268.6,114.8z M287.5,79.7l71.1,25.9
		l-6.2,20.7l-71.7-23.9L287.5,79.7z"/>
	<path d="M212.2,132v-23.4h-15.6v15.6H95.2v15.6h109.2C208.7,139.8,212.2,136.3,212.2,132z"/>
	<path d="M298,451.8h85.8c4.3,0,7.8-3.5,7.8-7.8v-23.4H376v15.6h-78V451.8z"/>
	<rect x="266.8" y="436.2" width="15.6" height="15.6"/>
	<path d="M233.3,220.1c-3-3-8-3-11,0c-1,1-1.7,2.2-2,3.6c-7.1,23.9-17.3,46.8-30.3,68.1c-6.3,11.5-5.7,25.6,1.6,36.5
		c7.9,14,21.1,24.4,36.6,28.9c0.5,0.1,1,0.3,1.5,0.4c2,0.4,4,0.6,6,0.6c25.8,0,46.8-24.5,46.8-54.6
		C282.4,270.1,238.3,225.1,233.3,220.1z M203.3,299.8c11.3-18.7,20.7-38.5,28-59.1c14.6,16.5,35.6,44.4,35.6,62.9
		c0,4.5-0.7,9-2,13.3c-5.7-12.8-13.7-24.5-23.7-34.4c-3-3-8-3-11,0c-2.3,2.3-20.8,21.3-24.9,38.3l-0.1-0.2
		C200.9,314.5,200.2,306.6,203.3,299.8z M235.6,342.6c-1.2,0-2.3-0.2-3.4-0.4c-7.1-1.6-12.2-7.9-12.2-15.2c0-6.8,7.9-18.6,15.6-27.5
		c7.7,8.9,15.6,20.7,15.6,27.5c0,7.2-5,13.5-12,15.1C238,342.4,236.8,342.5,235.6,342.6z"/>
	<rect x="157.6" y="217.8" width="15.6" height="15.6"/>
	<rect x="157.6" y="249" width="15.6" height="15.6"/>
	<rect x="142" y="233.4" width="15.6" height="15.6"/>
	<rect x="173.2" y="233.4" width="15.6" height="15.6"/>
	<rect x="298" y="327" width="15.6" height="15.6"/>
	<rect x="298" y="358.2" width="15.6" height="15.6"/>
	<rect x="282.4" y="342.6" width="15.6" height="15.6"/>
	<rect x="313.6" y="342.6" width="15.6" height="15.6"/>
</g>
</svg>
