<svg id="Layer_1" data-name="Layer 1" xmlns="http://www.w3.org/2000/svg" width="943.87" height="495.92" viewBox="0 0 943.87 495.92">
  <defs>
    <style>
      .cls-1 {
        fill: #fff;
      }
    </style>
  </defs>
  <title>logo-white</title>
  <g>
    <g>
      <path class="cls-1" d="M234.56,157.86l18.82-5v-105H509.05V77.1l20.81-7.93V29H234.56Z"/>
      <path class="cls-1" d="M234.56,275.07l18.82-5.72v29.73H508.06V200l21.8-4V322.35H234.56Z"/>
      <path class="cls-1" d="M233.32,158.35S675.28,1.78,789.24,18.63C789.24,18.63,243.23,164.3,233.32,158.35Z"/>
      <path class="cls-1" d="M184,233.67S795.43,26.56,915.33,41.42C915.33,41.42,167.17,246.55,184,233.67Z"/>
      <path class="cls-1" d="M233.32,275.28S690.14,108.81,789.24,131.6C789.24,131.6,275.93,268.35,233.32,275.28Z"/>
    </g>
    <g>
      <path class="cls-1" d="M87.64,380.48A32.59,32.59,0,0,1,102,392.41,35.84,35.84,0,0,1,102,429a32,32,0,0,1-14.31,11.93Q78.34,445,65.74,445H46.62v26.17h-22V376.28H65.74Q78.36,376.28,87.64,380.48Zm-8.07,42.37q5.16-4.26,5.16-12.13c0-5.33-1.72-9.43-5.16-12.27s-8.45-4.27-15-4.27H46.62v32.95h17.9Q74.42,427.13,79.57,422.85Z"/>
      <path class="cls-1" d="M179.1,471.19l-18.31-26.44h-20.2v26.44h-22V376.28h41.09q12.61,0,21.9,4.2a32.5,32.5,0,0,1,14.3,11.93,32.92,32.92,0,0,1,5,18.31,30.91,30.91,0,0,1-19.53,30l21.29,30.51Zm-5.56-72.74q-5.16-4.27-15.06-4.27H140.59v33.08h17.89q9.9,0,15.06-4.34t5.15-12.2C178.69,405.39,177,401.29,173.54,398.45Z"/>
      <path class="cls-1" d="M276.86,450.86H232.8l-8.41,20.33H201.87l42.31-94.91h21.7l42.44,94.91H285.27ZM270,434.18l-15-36.34-15.06,36.34Z"/>
      <path class="cls-1" d="M400.66,471.19l-.14-56.95-27.93,46.92h-9.9l-27.8-45.69v55.72H314.28V376.28h18.18l35.52,59,35-59h18l.27,94.91Z"/>
      <path class="cls-1" d="M459.17,466.45a47.2,47.2,0,0,1-18.58-17.56,50.51,50.51,0,0,1,0-50.31A47.2,47.2,0,0,1,459.17,381a58.77,58.77,0,0,1,53.22,0,48.42,48.42,0,0,1,0,85.43,58.77,58.77,0,0,1-53.22,0ZM501,450.25a27.77,27.77,0,0,0,10.64-10.78,33.9,33.9,0,0,0,0-31.46A27.71,27.71,0,0,0,501,397.23a31.75,31.75,0,0,0-30.38,0A27.71,27.71,0,0,0,460,408a34,34,0,0,0,0,31.46,27.77,27.77,0,0,0,10.64,10.78,31.82,31.82,0,0,0,30.38,0Z"/>
      <path class="cls-1" d="M613.34,380.48a32.5,32.5,0,0,1,14.3,11.93,35.77,35.77,0,0,1,0,36.55,31.92,31.92,0,0,1-14.3,11.93Q604,445,591.44,445H572.32v26.17h-22V376.28h41.08Q604.06,376.28,613.34,380.48Zm-8.07,42.37q5.16-4.26,5.15-12.13c0-5.33-1.71-9.43-5.15-12.27s-8.45-4.27-15-4.27h-17.9v32.95h17.9Q600.12,427.13,605.27,422.85Z"/>
      <path class="cls-1" d="M704.8,471.19l-18.31-26.44h-20.2v26.44h-22V376.28h41.09q12.62,0,21.9,4.2a32.56,32.56,0,0,1,14.3,11.93,32.92,32.92,0,0,1,5,18.31,30.91,30.91,0,0,1-19.53,30l21.29,30.51Zm-5.56-72.74q-5.16-4.27-15.06-4.27H666.29v33.08h17.89q9.9,0,15.06-4.34t5.15-12.2C704.39,405.39,702.67,401.29,699.24,398.45Z"/>
      <path class="cls-1" d="M759.38,466.45a47.2,47.2,0,0,1-18.58-17.56,50.51,50.51,0,0,1,0-50.31A47.2,47.2,0,0,1,759.38,381a58.77,58.77,0,0,1,53.22,0,48.42,48.42,0,0,1,0,85.43,58.77,58.77,0,0,1-53.22,0Zm41.82-16.2a27.8,27.8,0,0,0,10.65-10.78,33.9,33.9,0,0,0,0-31.46,27.73,27.73,0,0,0-10.65-10.78,31.73,31.73,0,0,0-30.37,0A27.64,27.64,0,0,0,760.19,408a33.9,33.9,0,0,0,0,31.46,27.7,27.7,0,0,0,10.64,10.78,31.8,31.8,0,0,0,30.37,0Z"/>
    </g>
  </g>
</svg>
