<?xml version="1.0" encoding="utf-8"?>
<!-- Generator: Adobe Illustrator 22.0.0, SVG Export Plug-In . SVG Version: 6.00 Build 0)  -->
<svg version="1.1" id="Layer_1" xmlns="http://www.w3.org/2000/svg" xmlns:xlink="http://www.w3.org/1999/xlink" x="0px" y="0px"
	 viewBox="0 0 500 500" style="enable-background:new 0 0 500 500;" xml:space="preserve">
<g>
	<path d="M415.9,63.6c4.3,0,7.8-3.5,7.8-7.8s-3.5-7.8-7.8-7.8h-54.4V24.8c0-4.3-3.5-7.8-7.8-7.8h-38.8c-4.3,0-7.8,3.5-7.8,7.8v23.3
		h-233c-4.3,0-7.8,3.5-7.8,7.8s3.5,7.8,7.8,7.8h15.5v124.3H74.1c-4.3,0-7.8,3.5-7.8,7.8s3.5,7.8,7.8,7.8h15.5v124.3H74.1
		c-4.3,0-7.8,3.5-7.8,7.8c0,4.3,3.5,7.8,7.8,7.8h15.5v124.3H74.1c-4.3,0-7.8,3.5-7.8,7.8c0,4.3,3.5,7.8,7.8,7.8h23.3h295.1h23.3
		c4.3,0,7.8-3.5,7.8-7.8c0-4.3-3.5-7.8-7.8-7.8h-15.5V343.2h15.5c4.3,0,7.8-3.5,7.8-7.8c0-4.3-3.5-7.8-7.8-7.8h-15.5V203.4h15.5
		c4.3,0,7.8-3.5,7.8-7.8s-3.5-7.8-7.8-7.8h-15.5V63.6H415.9z M322.7,32.5H346v15.5h-23.3V32.5z M384.8,187.9H346
		c-4.3,0-7.8,3.5-7.8,7.8s3.5,7.8,7.8,7.8h38.8v124.3H346c-4.3,0-7.8,3.5-7.8,7.8c0,4.3,3.5,7.8,7.8,7.8h38.8v124.3H105.2V343.2H144
		c4.3,0,7.8-3.5,7.8-7.8c0-4.3-3.5-7.8-7.8-7.8h-38.8V203.4H144c4.3,0,7.8-3.5,7.8-7.8s-3.5-7.8-7.8-7.8h-38.8V63.6h209.7h38.8h31.1
		V187.9z"/>
	<path d="M317.4,216c-1.8-3.1-5.5-4.6-8.9-3.5c-3.4,1-5.7,4.3-5.5,7.9c0,0.2,0.9,17.6-1.4,32.7c-2.3,14.6-6,17.9-7.2,17.9
		c-0.3,0-0.6-0.1-1-0.2c-0.5-0.1-1-0.2-1.5-0.3c-0.3,0-6.7-0.6-9.6-5.9c-3.7-6.6-1.4-19,6.4-34.7c9-18.1,7.3-36.8-4.9-54
		c-6.1-8.5-13.3-14.7-18-18.8c-1.4-1.2-2.6-2.2-3.3-3c-2.3-2.4-5.8-3.1-8.7-1.7c-3,1.3-4.8,4.4-4.6,7.6c0,0.3,1.5,25.9-11.1,40
		c-1.3,1.4-2.5,2.9-3.7,4.2c-11.8,14.2-14.8,23.2-15.9,30.2c-0.1-1.5-0.1-3.7,0.2-6.9c0.9-13.8,4.9-33.5,5-33.6
		c0.7-3.3-0.9-6.7-3.9-8.4c-3-1.6-6.7-1.1-9.1,1.2c-2.6,2.5-62.3,61.1-37,124.2c16.8,42.1,34.6,50.2,51.3,52.7l2.6,0.4
		c6,1,15,2.4,25.6,2.4c23.8,0,43.6-7.4,58.9-22.1c1.3-1.2,2.5-2.5,3.6-3.7c20-21.6,26.4-50.4,18.6-83.4
		C329.9,239.8,322.7,225.2,317.4,216z M304.1,330.2c-0.9,1-1.9,2-2.9,3C288.9,345,272.7,351,253,351c-9.4,0-17.7-1.3-23.1-2.2
		l-2.8-0.4c-11.8-1.8-24.6-6.6-39.2-43.1c-13-32.4,1.9-64.7,15.7-85.3c-0.2,2.3-0.5,4.5-0.6,6.6c-0.3,4.5-0.4,8.3,0,11.2
		c0.6,5.6,2.6,22.7,15.2,22.7c6.5,0,10.9-5.4,11.8-6.5c0.5-0.7,0.9-1.4,1.2-2.2c1.4-4.1,1.7-7.6,2-10.7c0.6-6.5,1.2-12.7,12.9-26.8
		c1-1.2,2.2-2.6,3.4-3.9c9-10,12.7-23.4,14.2-34c2.5,2.5,5.1,5.4,7.4,8.6c9,12.5,10.2,25,3.7,38c-10.6,21.3-12.6,37.9-5.9,49.5
		c5.5,9.5,15.5,12.9,21.1,13.5c1.5,0.3,2.9,0.5,4.4,0.5c11.8,0,19.3-10.5,22.5-31.1c0.1-0.5,0.1-0.9,0.2-1.4
		c0.7,2.3,1.3,4.6,1.9,6.9C325.6,289,320.6,312.3,304.1,330.2z"/>
</g>
</svg>
