<?xml version="1.0" encoding="utf-8"?>
<!-- Generator: Adobe Illustrator 22.0.0, SVG Export Plug-In . SVG Version: 6.00 Build 0)  -->
<svg version="1.1" id="Layer_1" xmlns="http://www.w3.org/2000/svg" xmlns:xlink="http://www.w3.org/1999/xlink" x="0px" y="0px"
	 viewBox="0 0 500 500" style="enable-background:new 0 0 500 500;" xml:space="preserve">
<g>
	<path d="M436.8,112.5l-62.1-62.1c-3.1-3.1-7.9-3.1-11,0l-9.9,9.9l-10.1-10.1c-0.8-0.8-1.6-1.2-2.5-1.7c-0.9-0.3-2-0.5-3-0.5h-69.9
		V24.8c0-4.3-3.4-7.8-7.8-7.8H120.7c-4.3,0-7.8,3.4-7.8,7.8v23.3H58.6c-4.3,0-7.8,3.4-7.8,7.8v419.4c0,4.3,3.4,7.8,7.8,7.8h372.8
		c4.3,0,7.8-3.4,7.8-7.8V149c0-0.9-0.2-2-0.6-3c-0.3-0.9-0.9-1.9-1.7-2.5l-10.1-10.1l10.1-10.1C439.9,120.5,439.9,115.5,436.8,112.5
		z M369.3,66.9l51.1,51.1l-4.5,4.5l-51.1-51.1L369.3,66.9z M128.5,32.5h124.3v15.5H128.5V32.5z M423.6,467.5H66.4V63.6h268.6
		l88.7,88.7V467.5z"/>
	<path d="M221.7,242.2c0-27.3-43-90.6-48-97.5c-3-4.2-9.9-4.2-12.7,0c-5,7.1-48,70.2-48,97.5c0,30,24.4,54.4,54.4,54.4
		S221.7,272.2,221.7,242.2z M167.3,281.1c-21.4,0-38.8-17.4-38.8-38.8c0-15.1,21.7-53.1,38.8-79.2c17.1,26.1,38.8,64.3,38.8,79.2
		C206.2,263.7,188.8,281.1,167.3,281.1z"/>
	<path d="M316.3,144.7c-5,7.1-48,70.2-48,97.5c0,30,24.4,54.4,54.4,54.4s54.4-24.4,54.4-54.4c0-27.3-43-90.6-48-97.5
		C326.1,140.5,319.2,140.5,316.3,144.7z M322.7,281.1c-21.4,0-38.8-17.4-38.8-38.8c0-15.1,21.7-53.1,38.8-79.2
		c17.1,26.1,38.8,64.3,38.8,79.2C361.5,263.7,344.1,281.1,322.7,281.1z"/>
	<path d="M238.6,284.5c-5,7.1-48,70.2-48,97.5c0,30,24.4,54.4,54.4,54.4s54.4-24.4,54.4-54.4c0-27.3-43-90.6-48-97.5
		C248.4,280.3,241.6,280.3,238.6,284.5z M245,420.9c-21.4,0-38.8-17.4-38.8-38.8c0-15.1,21.7-53.1,38.8-79.2
		c17.1,26.1,38.8,64.3,38.8,79.2C283.8,403.5,266.4,420.9,245,420.9z"/>
</g>
</svg>
