<svg width="192" height="41" viewBox="0 0 192 41" fill="none" 
    xmlns="http://www.w3.org/2000/svg">
    <path d="M32.0111 19.6636C35.2121 19.6636 37.807 17.0934 37.807 13.9229C37.807 10.7523 35.2121 8.18213 32.0111 8.18213C28.81 8.18213 26.2151 10.7523 26.2151 13.9229C26.2151 17.0934 28.81 19.6636 32.0111 19.6636Z" fill="#5CC9F4"/>
    <path d="M14.1903 19.6636C17.3913 19.6636 19.9862 17.0934 19.9862 13.9229C19.9862 10.7523 17.3913 8.18213 14.1903 8.18213C10.9892 8.18213 8.39429 10.7523 8.39429 13.9229C8.39429 17.0934 10.9892 19.6636 14.1903 19.6636Z" fill="#5CC9F4"/>
    <path d="M23.0506 34.8404C26.2516 34.8404 28.8466 32.2702 28.8466 29.0996C28.8466 25.9291 26.2516 23.3589 23.0506 23.3589C19.8496 23.3589 17.2546 25.9291 17.2546 29.0996C17.2546 32.2702 19.8496 34.8404 23.0506 34.8404Z" fill="#F8BE15"/>
    <path d="M39.9056 34.8404C43.1066 34.8404 45.7016 32.2702 45.7016 29.0996C45.7016 25.9291 43.1066 23.3589 39.9056 23.3589C36.7046 23.3589 34.1096 25.9291 34.1096 29.0996C34.1096 32.2702 36.7046 34.8404 39.9056 34.8404Z" fill="white"/>
    <path d="M5.79597 34.8404C8.997 34.8404 11.5919 32.2702 11.5919 29.0996C11.5919 25.9291 8.997 23.3589 5.79597 23.3589C2.59495 23.3589 0 25.9291 0 29.0996C0 32.2702 2.59495 34.8404 5.79597 34.8404Z" fill="white"/>
    <path d="M84.608 21.0821V33.1245H77.9792V21.841C77.9792 19.9934 77.1465 19.1026 75.5143 19.1026C73.7155 19.1026 72.7828 20.3563 72.7828 22.4018V33.1245H66.1874V21.841C66.1874 19.9934 65.3547 19.1026 63.6892 19.1026C61.8904 19.1026 60.9577 20.3563 60.9577 22.4018V33.1245H54.3623V13.4608H60.9577V15.3084C62.1902 13.6917 63.989 12.8999 66.3207 12.8999C68.5858 12.8999 70.2846 13.7247 71.4171 15.4074C72.8162 13.7247 74.7148 12.8999 77.1798 12.8999C81.7433 12.8999 84.608 16.0012 84.608 21.0821Z" fill="white"/>
    <path d="M96.6996 33.6527C93.7683 33.6527 91.27 32.6629 89.2381 30.6503C87.2062 28.6377 86.1736 26.1633 86.1736 23.2599C86.1736 20.3566 87.2062 17.9151 89.2381 15.9025C91.27 13.89 93.7683 12.8672 96.6996 12.8672C99.6309 12.8672 102.129 13.89 104.161 15.9025C106.193 17.9151 107.226 20.3566 107.226 23.2599C107.226 26.1633 106.193 28.6377 104.161 30.6503C102.129 32.6959 99.6309 33.6527 96.6996 33.6527ZM96.6996 27.9119C97.9987 27.9119 99.0646 27.483 99.964 26.6252C100.83 25.7674 101.263 24.6456 101.263 23.2929C101.263 21.9072 100.83 20.8185 99.964 19.9606C99.0979 19.1028 98.032 18.6739 96.6996 18.6739C95.4005 18.6739 94.3346 19.1028 93.4352 19.9606C92.5691 20.8185 92.1361 21.9402 92.1361 23.2929C92.1361 24.6786 92.5691 25.7674 93.4352 26.6252C94.3346 27.483 95.4005 27.9119 96.6996 27.9119Z" fill="white"/>
    <path d="M125.913 15.0774C127.345 16.5291 128.045 18.5087 128.045 21.0491V33.1245H122.082V21.9069C122.082 19.5974 120.65 18.3437 118.618 18.3437C116.353 18.3437 114.92 19.7294 114.92 22.4018V33.1245H108.958V13.4608H114.92V15.3084C116.119 13.6917 118.018 12.8999 120.583 12.8999C122.748 12.8999 124.514 13.6257 125.913 15.0774Z" fill="white"/>
    <path d="M147.464 15.0774C148.897 16.5291 149.596 18.5087 149.596 21.0491V33.1245H143.634V21.9069C143.634 19.5974 142.201 18.3437 140.169 18.3437C137.904 18.3437 136.472 19.7294 136.472 22.4018V33.1245H130.51V13.4608H136.472V15.3084C137.671 13.6917 139.57 12.8999 142.135 12.8999C144.3 12.8999 146.065 13.6257 147.464 15.0774Z" fill="white"/>
    <path d="M152.094 33.1246V13.4609H158.057V33.1246H152.094Z" fill="white"/>
    <path d="M169.649 13.4609H168.083C168.083 11.4153 169.316 10.5245 171.781 10.7225V5.04769C165.385 4.68477 162.121 7.78609 162.121 13.4609H159.456V19.1356H162.121V33.1246H168.083V19.1356H172.047L169.649 13.4609Z" fill="white"/>
    <path d="M185.638 13.4609H192L185.205 32.5308C182.973 38.7004 179.475 41.2739 173.879 40.9769V35.4671C176.611 35.4671 177.943 34.6093 178.843 32.2008L170.948 13.4609H177.51L181.907 25.5033L185.638 13.4609Z" fill="white"/>
    <path d="M156.125 0C156.658 0.0989784 157.357 0.164964 158.024 0.362921C159.423 0.725842 160.156 1.91358 159.889 3.33227C159.423 5.90571 158.057 7.95127 155.992 9.53492C154.793 10.4257 153.56 10.0958 152.961 8.74309C152.028 6.63155 151.861 4.42104 152.361 2.21052C152.594 1.08876 153.627 0.263942 154.826 0.0989784C155.192 0.0329928 155.592 0.0329928 156.125 0Z" fill="#F8BE15"/>
</svg>
