<svg xmlns="http://www.w3.org/2000/svg" width="36.415" height="28.769" viewBox="0 0 36.415 28.769"><defs><style>.a{fill:#fff;}</style></defs><path class="a" d="M32.289,79.7a4.4,4.4,0,0,0,3.966-2.706,5.772,5.772,0,0,1-4.293.547c-.062-.341-.131-.664-.2-.957-.964-4.058-4.263-7.328-7.721-6.933.28-.13.563-.25.846-.358.381-.156,2.613-.573,2.262-1.477-.3-.795-3.024.6-3.538.783.678-.292,1.8-.8,1.92-1.689a5.154,5.154,0,0,0-2.847,1.546,2.379,2.379,0,0,0,.546-1.24c-2.771,2.03-4.389,6.122-5.7,10.092a14.078,14.078,0,0,0-2.758-2.543,67.651,67.651,0,0,0-9.343-4.716A5.779,5.779,0,0,0,8.548,75.3a6.7,6.7,0,0,0-2.242.309c.311,1.872,1.327,3.414,4.078,4.159a3.133,3.133,0,0,0-2.5,1.13,4.128,4.128,0,0,0,4.483,2.519c-2.794,1.381-1.139,3.939,1.134,3.558A8.8,8.8,0,0,1,0,87.384c9.169,14.328,29.1,8.473,32.07-5.327a5.18,5.18,0,0,0,4.345-1.883A7.8,7.8,0,0,1,32.289,79.7Z" transform="translate(0 -66.906)"/></svg>