<svg xmlns="http://www.w3.org/2000/svg" width="26.516" height="31.819" viewBox="0 0 26.516 31.819"><defs><style>.a{fill:#fff;}</style></defs><path class="a" d="M29.929,23.275H28.182l.008-1.014a.823.823,0,0,1,.822-.82h.111a.825.825,0,0,1,.824.82ZM23.379,21.1a.746.746,0,0,0-.805.662V26.7a.822.822,0,0,0,1.613,0V21.763A.747.747,0,0,0,23.379,21.1Zm10.637-2.759v9.384a4.233,4.233,0,0,1-4.338,4.093H11.838A4.233,4.233,0,0,1,7.5,27.726V18.342a4.233,4.233,0,0,1,4.338-4.093h17.84A4.234,4.234,0,0,1,34.016,18.342Zm-20.987,10.4V18.859h2.211V17.4l-5.9-.009v1.44l1.84.005v9.913Zm6.629-8.413H17.814v5.279a9.356,9.356,0,0,1,0,1.28c-.15.409-.824.844-1.086.044a10.505,10.505,0,0,1-.006-1.288l-.007-5.315H14.877l.006,5.232c0,.8-.018,1.4.006,1.672.045.48.029,1.039.474,1.359.829.6,2.419-.089,2.817-.943l0,1.09,1.481,0V20.332Zm5.9,6.045,0-4.393c0-1.674-1.254-2.677-2.954-1.322l.007-3.266-1.842,0-.009,11.275,1.515-.022.138-.7C24.342,29.723,25.558,28.507,25.556,26.377Zm5.77-.582-1.382.007c0,.055,0,.118,0,.187v.771a.755.755,0,0,1-.756.749h-.271a.755.755,0,0,1-.756-.749V24.732h3.166V23.54a18.8,18.8,0,0,0-.094-2.239c-.227-1.575-2.437-1.825-3.553-1.019a2.081,2.081,0,0,0-.774,1.041,5.862,5.862,0,0,0-.235,1.858V25.8C26.667,30.156,31.957,29.54,31.326,25.795ZM24.234,11.572a1.255,1.255,0,0,0,.443.56,1.284,1.284,0,0,0,.754.209,1.173,1.173,0,0,0,.706-.22,1.694,1.694,0,0,0,.517-.661l-.035.723h2.055V3.444H27.058v6.8a.674.674,0,0,1-1.347,0v-6.8H24.022v5.9c0,.751.014,1.252.036,1.505A2.534,2.534,0,0,0,24.234,11.572ZM18.006,6.636a7.273,7.273,0,0,1,.209-1.966,2.1,2.1,0,0,1,2.149-1.564,2.549,2.549,0,0,1,1.223.276,2.038,2.038,0,0,1,.788.717,2.829,2.829,0,0,1,.38.91,7.258,7.258,0,0,1,.1,1.431V8.65a11.966,11.966,0,0,1-.1,1.786,2.83,2.83,0,0,1-.405,1.062,1.921,1.921,0,0,1-.791.727,2.524,2.524,0,0,1-1.115.234,3.1,3.1,0,0,1-1.188-.2,1.631,1.631,0,0,1-.758-.606,2.69,2.69,0,0,1-.386-.98,9.444,9.444,0,0,1-.114-1.723V6.636Zm1.61,3.472a.82.82,0,1,0,1.633,0V5.455a.82.82,0,1,0-1.633,0Zm-5.688,2.349h1.939l0-6.7L18.16.012H16.04L14.822,4.277,13.586,0h-2.1l2.437,5.757Z" transform="translate(-7.5)"/></svg>