<?xml version="1.0" encoding="utf-8"?>
<!-- Generator: Adobe Illustrator 22.0.0, SVG Export Plug-In . SVG Version: 6.00 Build 0)  -->
<svg version="1.1" id="Layer_1" xmlns="http://www.w3.org/2000/svg" xmlns:xlink="http://www.w3.org/1999/xlink" x="0px" y="0px"
	 viewBox="0 0 1366 768" style="enable-background:new 0 0 1366 768;" xml:space="preserve">
<style type="text/css">
	.st0{fill:#2D2D2D;}
	.st1{opacity:7.000000e-02;}
	.st2{fill:#F2F2F2;}
	.st3{fill-opacity:0.1;}
	.st4{fill:#AFB9C5;}
	.st5{fill:#C5CFD6;}
	.st6{fill:#A4EAAD;}
	.st7{fill:#C3EAC9;}
	.st8{fill:#DDE3E9;}
	.st9{opacity:0.7;}
	.st10{fill:none;stroke:#CBCBCB;stroke-width:8;}
	.st11{fill:#89C5CC;}
	.st12{fill:#C1DEE2;}
	.st13{fill:#69A1AC;}
	.st14{fill:#FFFFFF;}
	.st15{fill:#D4A181;}
	.st16{fill:#191847;}
	.st17{fill:#BA8B72;}
	.st18{fill:#2026A2;}
	.st19{fill:#1F28CF;}
	.st20{fill:#B28B67;}
	.st21{fill:#E4E4E4;}
	.st22{fill:#2B44FF;}
	.st23{fill:#997659;}
	.st24{fill:#E87613;}
	.st25{fill:#FF9B21;}
	.st26{fill:#FF0000;}
</style>
<rect class="st0" width="1366" height="768"/>
<g class="st1">
	<g id="Clock" transform="translate(505.000000, 85.000000)">
		<circle id="Clock-Frame" class="st2" cx="655.3" cy="73.3" r="68.2"/>
		<circle id="Time" class="st3" cx="655.3" cy="19.2" r="3.8"/>
		<circle id="Time_1_" class="st3" cx="601.3" cy="73.3" r="3.8"/>
		<circle id="Time_2_" class="st3" cx="709.3" cy="73.3" r="3.8"/>
		<circle id="Time_3_" class="st3" cx="655.3" cy="127.3" r="3.8"/>
		<polygon id="Hand" class="st4" points="655.3,27 657.9,72 652.8,72 		"/>
		<polygon id="Hand_1_" class="st4" points="678.1,96 654.5,76 658.1,72.4 		"/>
		<circle id="Time_4_" class="st5" cx="655.3" cy="73.3" r="5.2"/>
	</g>
	<path id="Background-Shape" class="st6" d="M1134.5,497.8c-11.1-123.9-605.7-362.9-716-245.6S414.2,589.6,645.5,646
		S1145.6,621.6,1134.5,497.8z"/>
	<path id="Background-Shape_1_" class="st7" d="M496.2,552.1c12.2-129.3,666.6-378.8,788.1-256.3s90.8,380-163.9,438.8
		C865.7,793.4,484,681.4,496.2,552.1z"/>
	<g id="Hanging-Lamp_1_" transform="translate(25.000000, 0.000000)">
		<g id="Light" transform="translate(0.000000, 152.673469)">
			<ellipse id="Hanging-Lamp-Light" class="st2" cx="594.8" cy="68.8" rx="54.7" ry="29"/>
			<path id="Hanging-Lamp" class="st8" d="M658.5,88.8c0-35.5-28.5-64.3-63.7-64.3c-35.2,0-63.7,28.8-63.7,64.3"/>
		</g>
		<rect id="Wire" x="591.6" y="-19.2" class="st8" width="6.4" height="205.8"/>
	</g>
	<g id="Hanging-Lamp_3_" transform="translate(115.000000, 0.000000)" class="st9">
		<g id="Light_1_" transform="translate(0.000000, 113.000000)">
			<ellipse id="Hanging-Lamp-Light_1_" class="st2" cx="604.5" cy="48.9" rx="40.8" ry="23.3"/>
			<path id="Hanging-Lamp_2_" class="st8" d="M652.1,65c0-28.7-21.3-51.9-47.6-51.9S557,36.4,557,65"/>
		</g>
		<rect id="Wire_1_" x="601.9" y="-19.2" class="st8" width="6.4" height="174.9"/>
	</g>
	<g id="Lamp_2_" transform="translate(524.000000, 198.000000)">
		<path id="Body" class="st10" d="M669.8,84l23.9-23.9c4-4,10.6-4,14.6,0l0,0l63.6,63.6c3.8,3.8,6.1,9.1,6.1,14.6v421.2"/>
		<path id="Lamp-Base" class="st4" d="M743.1,558.2h68.2c2.1,0,3.8,1.7,3.8,3.8v1.3c0,2.1-1.7,3.8-3.8,3.8h-68.2
			c-2.1,0-3.8-1.7-3.8-3.8v-1.3C739.2,559.9,740.9,558.2,743.1,558.2z"/>
		
			<g id="Lamp-Top" transform="translate(48.083261, 49.083261) rotate(45.000000) translate(-48.083261, -49.083261) translate(14.583261, 14.583261)">
			<path id="Lamp" class="st5" d="M498-400.5L498-400.5c23.4,0,42.5,19,42.5,42.5v36h-84.9v-36C455.6-381.4,474.6-400.5,498-400.5z"
				/>
			
				<ellipse id="Lamp_1_" transform="matrix(7.605544e-06 1 -1 7.605544e-06 175.0203 -821.4839)" class="st2" cx="498.3" cy="-323.2" rx="8.3" ry="42.5"/>
		</g>
	</g>
	<g id="Big-Leaf-Plant" transform="translate(16.000000, 371.000000)">
		<g id="Big-Ass-Leaf" transform="translate(22.000000, 0.000000)">
			<path id="leaf" class="st8" d="M28.2,88.4c3.7-0.4,7.6-0.3,11,1.2c7.3,3.1,9.4,11.7,9.2,18.7c-0.1,7.5-1.7,15.7,4,21.8
				c2.7,2.8,5.9,4.9,8.5,7.8c2.7,3,4.9,6.5,6.5,10.3c3,6.9,4.4,14.9,1.7,22.1c-2.4,6.4-8.3,12-7,19.2c1.3,7.5,8.9,13.2,13.7,18.8
				c5.3,6.4,10.3,14.4,11.1,22.7c0.8,8-2.7,16-8,22c-10.6,12-26.6,17.9-42.6,17.9c-6.8,0-14.6-0.3-20.5-4c-1.8-1.1-2.8-2.4-3.8-4.2
				c-1-1.6-2.2-2.6-3.8-3.8c-3.2-2.4-5.6-5.8-7.1-9.5c-5.8-14.5-1.2-32.3,7-45.1c1.9-3,3.5-6,2.6-9.6c-1-3.8-3.4-7.2-5.5-10.4
				c-2.1-3.2-4.5-6.3-6.1-9.7c-1.7-3.6-2.2-7.5-1.9-11.4c0.6-7.5,3.8-14.4,8.3-20.4c4.4-5.8,9.6-11.4,9.6-18.9
				c0-8.1-5.4-15.2-3.1-23.4c1-3.4,2.9-6.9,5.9-8.9C20.8,89.5,24.7,88.8,28.2,88.4z"/>
			<path id="middle-thing" class="st5" d="M25.8,101.3c0.1-1.1,1.3-1.7,2.4-1.5c1.3,0.4,1.3,1.6,1.3,2.7c-0.1,3.4,0.4,6.7,1.2,10
				c1.7,6.9,4.8,13.1,7.3,19.8c2.5,6.6,3.6,13.4,2.2,20.3c-1.4,6.6-3.5,12.9-4.9,19.5c-1.3,5.8-2.6,11.9-0.7,17.7
				c1.8,5.5,5.8,10.1,8.7,15.1c6,10.4,8.6,21.9,9,33.8c0.1,5.5,0,11.1-1.3,16.5c-0.7,3.1-1.7,7.3-4.4,9.5c-1.3,1-3.3,1.3-4.4-0.1
				c-1-1.4-0.1-3.5,0.2-4.9c1.3-6.4,1.6-12.9,1.3-19.3c-0.3-6.3-1-12.5-3-18.5c-1.8-5.5-4.6-10.5-7.9-15.4
				c-3.3-4.9-6.8-9.9-8.1-15.7c-1.4-5.9-0.3-12,1.3-17.8c1.6-6.2,3.7-12.2,5.9-18.2c2.1-5.8,2.9-11.4,1.7-17.5
				C31.2,125.2,25,113.8,25.8,101.3z"/>
		</g>
		<g id="Big-Ass-Leaf_1_" transform="translate(32.000000, 11.000000)">
			<path id="leaf_1_" class="st8" d="M115.5,92.1c4.6,1.4,9.1,3.6,12.3,7.1c6.9,7.5,4.8,18.7,1,26.9c-4.1,8.9-10.3,17.7-6.8,27.9
				c1.6,4.7,4.4,8.9,5.8,13.6c1.6,5,2.4,10.3,2.2,15.5c-0.1,9.6-2.7,19.9-9.7,27c-6.1,6.3-16.2,9.9-18.5,19.1
				c-2.4,9.6,3.5,20.3,6.1,29.4c3,10.3,4.4,22.4,1,32.6c-3.3,9.8-11.6,17.5-21,21.9c-18.8,8.7-40.6,7.3-59.5-1
				c-8-3.5-16.9-8-21.9-15.4c-1.6-2.3-2-4.3-2.3-6.9c-0.3-2.4-1.3-4.3-2.4-6.4c-2.5-4.6-3.5-9.7-3.3-14.9
				c0.8-20.1,15.7-38.9,32.1-49.7c3.8-2.6,7.3-5.2,8.1-10c0.8-4.9-0.1-10.3-1-15.2c-0.7-4.9-2-9.7-2.1-14.8
				c-0.1-5.2,1.3-10,3.8-14.5c4.7-8.6,12-15,20.6-19.8c8.2-4.6,17.2-8.4,21.3-17.4c4.3-9.5,1.8-20.8,8.8-29.2
				c2.9-3.5,6.9-6.6,11.7-7.5C106.3,89.5,111.1,90.7,115.5,92.1z"/>
			<path id="middle-thing_1_" class="st5" d="M106.1,107.8c0.7-1.3,2.5-1.3,3.5-0.4c1.3,1.1,0.7,2.6,0.1,3.9c-1.9,4-3,8.1-3.8,12.5
				c-1.6,9-1.3,18.2-1.8,27.3c-0.5,9.1-2.7,17.7-8.1,25.3c-5,7.1-10.9,13.5-16,20.5c-4.5,6.2-9.2,12.8-10,20.6
				c-0.8,7.5,1.6,15,2.3,22.5c1.6,15.4-1.4,30.5-7.2,44.8c-2.7,6.6-5.8,13.1-10.1,18.9c-2.5,3.3-5.8,7.8-10.1,8.9
				c-2,0.5-4.6-0.1-5-2.4c-0.4-2.1,1.7-4.2,2.8-5.8c4.9-6.8,8.6-14.4,11.6-22.2c2.9-7.5,5.3-15.4,6.1-23.4
				c0.7-7.5,0.1-14.8-1.2-22.3c-1.3-7.6-2.7-15.3-1.3-22.9c1.5-7.8,6-14.3,10.8-20.5c5.1-6.5,10.7-12.5,16.4-18.4
				c5.5-5.8,9.3-12,11.2-19.9C99.9,139,98.6,122.3,106.1,107.8z"/>
		</g>
		<g id="Big-Ass-Leaf_2_" transform="translate(0.000000, 57.000000)">
			<path id="leaf_2_" class="st5" d="M6.6,103.2c7.6,0,14.3,4,18.8,9.7c5.4,6.6,6.4,14.8,8.6,22.7c1.1,4,3,7.9,6.2,10.6
				c3,2.4,6.7,3,10.3,4.1c7.1,2.4,12.9,8.1,15.1,15.1c2.8,8.6-0.1,17.2,0.4,25.9c0.4,8,8.3,12.9,14.6,16.8
				c6.2,3.8,11.8,7.3,13.7,14.6c2,7.8,2.7,16.5-0.1,24.2c-4.6,12.8-18,18.5-31,19.3c-11.8,0.8-26.6-0.4-35.5-9
				c-5.3-5.1-7.2-12.3-6.9-19.4c0.1-4.4,1-8.8,2.1-13.1c0.8-3,1.9-6.1,2.2-9.2c0.8-8.3-6.9-10-13.4-12.3c-8.4-2.8-14.3-8.3-18.3-16
				c-3.8-7.2-5.4-15.1-3.1-23c1.2-4,3.2-7.6,6.1-10.7c1.3-1.3,3-2.5,4.1-3.9c1-1.3,0.8-3.1,0.4-4.7c-1.7-7.2-6.9-13.2-8.8-20.4
				c-1.7-6.5-0.7-14.6,5.2-18.8C0.2,104,3.4,103.2,6.6,103.2z"/>
			<path id="middle-thing_2_" class="st4" d="M16.8,122c8.1,8.6,10.2,20.2,10.9,31.4c0.4,6.3,0,13,1.8,19.1c1.6,5.2,5.3,9.2,9.2,13
				c7.7,7.6,16.3,15.4,18.6,26.4c1.3,6.5,0.4,13.1,2.3,19.6c1.7,5.8,4.6,11.5,8.1,16.5c2.9,4,6.6,7,9.7,10.6c1,1.1,2.4,2.8,1.9,4.4
				c-0.4,1.8-2.8,2.4-4.5,2.1c-3.9-0.7-7.2-4.4-9.7-7.2c-3.8-4-6.9-8.3-9.5-13.1c-2.9-5.3-5.2-11-6.2-17c-1-6.2-0.5-12.7-2.9-18.6
				c-3.9-10-13.5-16-20.5-23.8c-8.6-9.7-7.3-21.9-6.4-33.8c0.5-6.6,1-14-2.4-20c-1.3-2.3-4.1-4.4-4.7-7
				C12.1,122.3,14.8,119.8,16.8,122z"/>
		</g>
		<path id="Base" class="st11" d="M25.4,319.6c0,49,8,74.6,50.2,74.6s50.2-25.6,50.2-74.6H25.4z"/>
	</g>
	<g id="Table" transform="translate(135.000000, 353.000000)">
		<g id="Lamp_3_" transform="translate(23.000000, 0.000000)">
			<path id="Lamp-Base_1_" class="st4" d="M59.6,266.9h43.7c1.4,0,2.6,1.2,2.6,2.6v6.4c0,1.4-1.2,2.6-2.6,2.6H59.6
				c-1.4,0-2.6-1.2-2.6-2.6v-6.4C57.1,268,58.2,266.9,59.6,266.9z"/>
			<path id="Lamp-Body" class="st8" d="M69.9,229.6c5.5-17.9,8.6-36.8,9.3-56.6h3.5H85c0.7,19.8,3.8,38.7,9.3,56.6h8.3
				c11,0,19.9,8.9,19.9,19.9c0,11-8.9,19.9-19.9,19.9H60.2c-11,0-19.9-8.9-19.9-19.9c0-11,8.9-19.9,19.9-19.9H69.9z"/>
			<path id="Shade" class="st5" d="M36,83.9c14.8-1.4,29.5-2.1,44.2-2.1s29.5,0.7,44.2,2.1l5.9,102.2c-16.7,1.6-33.5,2.4-50.2,2.4
				s-33.5-0.8-50.2-2.4L36,83.9z"/>
		</g>
		<path class="st2" d="M50.4,278.5h106.7h27v133.8h-27V306.7H50.4v105.5h-27V278.5H50.4z"/>
	</g>
	<g id="Plant" transform="translate(537.000000, 328.000000)">
		<g id="Succulents" transform="translate(13.000000, 0.000000)">
			<path id="Thi-Succs_x21_" class="st12" d="M604.4,74.9c11.4,27,30.7,45.7,40.9,73.8c6.1,16.6,8.6,34.7,8.7,53.3
				c0.1,10-0.1,20.2-0.1,30.2c-0.1,9.8-0.3,19.6-1.2,29.3c-0.8,9.8-1.8,19.5-2.2,29.4c-0.3,7.7-0.4,16.6-3.1,23.6
				c-2.1,5.5-7.3,6.4-8.7-0.4c-0.8-3.8-0.7-8-0.6-11.8c0.1-4.9,0.4-9.9,0.5-14.8c0.6-19.9-0.1-39.8,0.2-59.7
				c0.4-19.4,2.9-38.9,0.1-58.2c-2.3-16-8.1-29.6-14.8-42.8c-6.4-12.6-13.4-25-17.7-39.3c-1.3-4.1-2.2-8.4-2.7-12.9
				C604.1,74.6,604.3,74.6,604.4,74.9z"/>
			<path id="Thi-Succs_x21__1_" class="st11" d="M601.3,128.1c2.2,1.6,3.5,4,5,6.4c1.9,2.9,4.1,5.5,6,8.5c3.9,6.1,7.4,12.6,11,18.8
				c6.8,12,12,24.8,14.6,38.7c2.7,14.4,3.4,29.2,4.5,43.9c1.2,15.5,2.4,31.1,2.5,46.6c0.1,6.9,0.4,14.3-0.4,21.3
				c-0.5,4.3-2.4,8-6.9,8c-9.3-0.1-13.7-10.4-15.5-18.8c-2.7-12.5-3.2-25.7-2.8-38.4c0.5-15.4,3.2-30.4,4.4-45.7
				c1.3-16.2,0.5-32.1-5-47.3c-2.8-7.7-6.1-15.2-9-22.9c-1.3-3.2-2.3-6.6-4-9.6c-1.8-3.4-4.2-6.4-5.7-10
				C600.4,127.6,600.9,127.8,601.3,128.1z"/>
			<path id="Thi-Succs_x21__2_" class="st12" d="M708.5,95.8c0.3-0.2,0.6-0.4,0.9-0.7c-0.8,3.5-2.3,6.3-3.5,9.5
				c-1,2.9-1.6,6.1-2.2,9.2c-1.6,7.3-3.5,14.5-5,21.8c-3,14.6-2.4,30.3-0.4,46.5c1.8,15.3,4.8,30.5,6.2,45.8
				c1.2,12.7,1.7,25.7,0.6,37.8c-0.7,8.2-3.3,18-10,17.2c-3.2-0.4-4.9-4.2-5.5-8.6c-1.1-6.9-1.3-14.3-1.7-21.1
				c-1-15.4-1.1-30.8-1.3-46c-0.1-14.4-0.7-29,0.3-43.1c1-13.5,3.8-25.7,8-37c2.2-5.9,4.3-12,6.7-17.7c1.2-2.7,2.6-5.1,3.8-7.8
				C706.2,99.4,707,97.2,708.5,95.8z"/>
			<path id="Thi-Succs_x21__3_" class="st12" d="M604.2,172.7c1.3-2.1,3.9,4.7,4.4,5.6c-0.1-0.4-0.4-0.9-0.5-1.3
				c2.4,4.1,4.7,8.3,6.1,12.9c1.4,4.6,2.6,9.3,3.8,14c2.4,8.7,5.5,17.2,7.8,26c2.1,8.6,2.7,17,2.1,25.9c-0.5,9.2-0.9,18.5-0.2,27.8
				c0.3,4.4,1.7,8.5,2.7,12.7c1,4.2,1.8,8.5,2.9,12.7c0.3-0.5,0.3,1.3,0.3,1.4c0,1-0.1,1.9-0.5,2.9c-0.9,2.5-2.5,4.7-4.9,5.4
				c-4.4,1.3-8.6-2.8-10-7c-2.1-6.1-3.2-12.9-4.1-19.4c-0.9-5.9-1.1-11.8-0.8-17.8c0.5-11.8,2.7-23.5,3.3-35.2
				c0.7-12.9-1.9-24.9-4.1-37.4c-1-6.1-2-12-4-17.7c-0.8-2.3-1.8-4.4-3-6.5C604.7,176.3,603.3,174.1,604.2,172.7z"/>
			<path id="Thi-Succs_x21__4_" class="st13" d="M640.3,152.6c-0.5,14.7-1.4,29.3-3.3,43.9c-2,14.8-4.3,29.7-6.2,44.5
				c-1.8,14.5-3.8,29.2-3.5,43.9c0.2,10.8-1.6,29.1,10.4,34.4c12.2,5.4,14.8-17.7,15.6-25.3c1.6-14.6,1-29.4,0.3-44.1
				c-0.7-15.1-2.1-30.1-3.6-45.1c-1.8-16.7-3.1-33.5-4.2-50.2c-0.5-8.3-0.7-16.5-0.5-24.8c0.1-7.8-0.1-15.7-3-23.1
				c-0.1,0.1-0.3,0.2-0.4,0.3"/>
			<path id="Thi-Succs_x21__5_" class="st11" d="M703,199.2c-2.2,3.2-4.4,6.4-6.4,9.7c-3.7,6.1-7,12.8-8.1,21.4
				c-2.1,18.1-0.4,37.6,0,56.2c0.1,3.8-0.4,7.5,1.1,11.2c1.3,3.2,3.9,5.8,6.4,5.8c5.2,0,4.4-12.7,4.4-18.3c0-9.8-1.1-19.7-1-29.5
				c0.1-9.7,0.7-19.4,2.1-28.7c1.4-9.3,3.5-18.3,6.3-26.7c0.4-1.2,3.1-10.1,0.5-8.6"/>
			<path id="Thi-Succs_x21__6_" class="st13" d="M680.1,102.8c-3.4,0-3.4,17-3.5,19.2c-0.4,7.9-0.3,15.7-0.5,23.6
				c-0.5,17.2-1.1,34.6-3.7,51.6c-1.4,9.2-3,18.2-4.7,27.3c-1.8,9.1-4.1,18.2-5.2,27.5c-1.1,8.9-0.4,17.9-0.3,26.8
				c0.1,8.9,0.4,17.9,1.6,26.8c0.3,2.2,0.7,4.4,1,6.6c0.3,1.8,0.1,4.1,0.7,5.8c0.8,2.7,4.4,3.7,6.7,3.2c6.4-1.2,10.5-9.2,12.7-15.1
				c2.8-7.5,4.3-15.7,5.8-23.6c1.6-9,2.7-18.1,3.1-27.3c1-18.6-0.3-37.2-1.6-55.7c-0.7-10.3-1.6-20.5-2.9-30.8
				c-1.3-10.2-3-20.3-4.1-30.6c-0.8-7.5-1.6-14.8-2.1-22.3C682.8,114.3,682.7,102.8,680.1,102.8"/>
			<path id="Thi-Succs_x21__7_" class="st11" d="M675.9,226.5c-0.6-17.9-7.8-96.3-9.4-117.9c-0.4-5.4-4.4-27.9-4.9-34.1
				c-1.4,1.7-1.3,28.7-1.3,34.9c0,6.1-0.7,12.2-1.1,18.2c-0.4,6.2-9.6,86.5-10.8,92.5c-2.4,11.9-4,24.1-5.2,36.3
				c-1.2,11.8-3,24.4-1.5,36.3c0.4,2.7,1,5.5,1.9,8c1,2.7,1.7,5.2,2.5,8.1c1.3,4.6,3.7,8.6,7.4,10.5c7.5,3.9,11.6-4.9,13.6-12.6
				c3.2-12.2,5.4-24.7,6.4-37.4C674.7,255,676.3,240.8,675.9,226.5"/>
		</g>
		<g id="Planter" transform="translate(0.000000, 159.000000)">
			<path id="Vase" class="st14" d="M611.7,120.1h111.9c1.4,0,2.6,1.2,2.6,2.6v111.9c0,1.4-1.2,2.6-2.6,2.6H611.7
				c-1.4,0-2.6-1.2-2.6-2.6v-112C609.2,121.2,610.3,120.1,611.7,120.1z"/>
			<path id="Leg" class="st5" d="M598.9,132.9h7.7c1.4,0,2.6,1.2,2.6,2.6v140.2c0,1.4-1.2,2.6-2.6,2.6h-7.7c-1.4,0-2.6-1.2-2.6-2.6
				V135.4C596.3,134,597.5,132.9,598.9,132.9z"/>
			<path id="Leg_1_" class="st5" d="M663.2,132.9h7.7c1.4,0,2.6,1.2,2.6,2.6v140.2c0,1.4-1.2,2.6-2.6,2.6h-7.7
				c-1.4,0-2.6-1.2-2.6-2.6V135.4C660.6,134,661.7,132.9,663.2,132.9z"/>
			<path id="Leg_2_" class="st5" d="M728.8,132.9h7.7c1.4,0,2.6,1.2,2.6,2.6v140.2c0,1.4-1.2,2.6-2.6,2.6h-7.7
				c-1.4,0-2.6-1.2-2.6-2.6V135.4C726.2,134,727.3,132.9,728.8,132.9z"/>
		</g>
	</g>
	<g id="humaaans_x2F_standing-3">
		<g id="humaaan-12" transform="translate(24.000000, 10.000000)">
			
				<g id="Head_x2F_Front_x2F_Pony" transform="translate(192.496667, 70.916479) rotate(15.000000) translate(-192.496667, -70.916479) translate(121.550000, 16.686230)">
				<g id="Head" transform="translate(56.316359, 32.329762)">
					<path class="st15" d="M194.6,139.2c-6.6-7.8-11.2-17.4-10.4-28.1c2.1-30.9,45.2-24.2,53.6-8.5s7.4,55.2-3.5,58
						c-4.3,1.1-13.5-1.6-22.9-7.2l5.9,41.5h-34.6L194.6,139.2z"/>
				</g>
				<path id="hair" class="st16" d="M262.9,169.4c-4.3,8.3-10.3,14.5-16.2,14.5c-11.3,0-19.3-15.1-19.3-31.3c0-0.6,0-1.1,0-1.7
					c-12,8.2-21.1,24.4-36.9,24.4c-21.5,0-30-43.4,0-43.4c20.4,0,30.4,3,39.1,7.4c1.7-4.8,4.3-8.9,7.5-11.7c0.7-0.9,1.9-1.7,3.5-2.4
					c1-0.5,1.9-0.9,2.9-1.3c5.2-1.9,12.8-3.2,21.2-3.5c1.6-0.1,3.1-0.1,4.7-0.1c0-8,6.5-14.4,14.5-14.4c8,0,14.5,6.5,14.5,14.5
					c0,7.7-6.1,14-13.7,14.4c-4.4,1.3-10,2.4-16.2,2.7c0.6,2.3,1,4.9,1,7.8c0,2.6-0.3,5.3-0.8,8.1c-1.3-1.6-3.2-2.7-4.9-2.7
					c-5.1,0-8.6,4.2-8.6,8.6C254.8,164.9,258.2,169.1,262.9,169.4z"/>
			</g>
			<g id="Bottom_x2F_Standing_x2F_Sweatpants" transform="translate(0.000000, 211.706546)">
				<polygon id="Leg_4_" class="st17" points="267.4,197.5 320.2,379.8 345.1,516.8 370.2,516.8 345.2,197.5 				"/>
				<path id="Leg_3_" class="st15" d="M243.6,197.5c3.7,94.8,2.2,146.4,1.4,155c-0.8,8.6-5.5,66.3-37.5,167.2h26
					c42.3-96.8,57.1-154.4,62-167.2c4.9-12.7,19.2-64.4,40.1-155L243.6,197.5L243.6,197.5z"/>
				<path id="Pant" class="st13" d="M266.2,197.5c13.7,62.8,37.6,162.9,71.4,300.5h36.6c2.7-141.2-8.8-234.1-28.7-300.5L266.2,197.5
					L266.2,197.5z"/>
				<path id="Pant_1_" class="st11" d="M243.3,197.5c3.6,94.8-5.8,188.1-34.8,302h39c42.4-95.4,72.8-188.2,93.6-302L243.3,197.5
					L243.3,197.5z"/>
				<g id="Accessories_x2F_Shoe_x2F_Flat-Simple" transform="translate(87.603226, 207.536214)">
					<path id="Shoe" class="st16" d="M116.2,330.9l1.4-23.1c8.4,2.4,18.9,1.5,31.5-2.9c13.6,9.6,30.7,16.2,51.3,19.7l0,0
						c1.6,0.3,2.7,1.8,2.4,3.3c0,0.1-0.1,0.2-0.1,0.3l-2,7h-51.6H119L116.2,330.9z"/>
				</g>
				<g id="Accessories_x2F_Shoe_x2F_Flat-Simple_1_" transform="translate(185.635407, 207.536214)">
					<path id="Shoe_1_" class="st16" d="M153.9,330.9l1.4-23.1c8.4,2.4,18.9,1.5,31.5-2.9c13.6,9.6,30.7,16.2,51.3,19.7l0,0
						c1.6,0.3,2.7,1.8,2.4,3.3c0,0.1-0.1,0.2-0.1,0.3l-2,7h-51.6h-30.1L153.9,330.9z"/>
				</g>
			</g>
			
				<g id="Body_x2F_Pointing-Forward" transform="translate(167.500000, 199.713318) rotate(10.000000) translate(-167.500000, -199.713318) translate(33.953333, 102.203160)">
				<path id="Skin" class="st15" d="M355.9,188.5l50.2-27.5c8.3-9.9,16.5-17.6,24.7-23c2.4-1,6.8-1.6,2.7,5.5
					c-4.1,7.2-8,14.9-5.9,17.1c2.1,2.2,7.2-0.9,9.7,2.8c1.6,2.4-7.2,6.4-26.4,11.6l-36.4,33.4L355.9,188.5z M434.5,211.7l22-12.1
					c3.1-11.7,6.8-17.7,11.1-17.7c3.3-1.6-2.4,13.3,3.8,12s21.6-12.6,24.2-10.3c3.9,3.4,0.4,13.9-3.7,19.1
					c-7.7,9.7-14,13.1-29.6,17.4c-8.2,2.3-17.1,6.9-26.5,13.7L434.5,211.7z"/>
				<path id="Sleeve" class="st18" d="M331.5,182.4c17.6-0.2,41-3.9,66-19.8l9.8,21.9c-17.2,17.1-41.5,31.2-62.7,30.6
					C327.9,214.6,319.4,194.4,331.5,182.4z"/>
				<path id="Clothes" class="st19" d="M355.2,217.5c18.6,4.7,49.9-0.8,93.8-16.5c10.9,22.5,16,38.6,15.1,48.2
					c-37.7,19.6-69.9,28.4-96.5,29c0.8,15.8-1.1,30.8-7.5,44.5c-13.3,28.2-90.9,2.1-117,7.2c-16.3-53.1,15.3-74.7,15.3-108.7
					c0-37.2,29.9-94.5,34.3-94.5l40.1,0C334.9,155.3,346,186.6,355.2,217.5z"/>
			</g>
		</g>
	</g>
	<g id="humaaans_x2F_sitting-2">
		
			<g id="A-Human_x2F_Sitting" transform="translate(190.000000, 200.500000) scale(-1, 1) translate(-190.000000, -200.500000) translate(40.000000, 24.000000)">
			<g id="Head_x2F_Front_x2F_Rad" transform="translate(82.000000, 0.000000)">
				<g id="Head_2_" transform="translate(54.000000, 31.000000)">
					<path class="st20" d="M-673.8,269.2c-7-8.3-11.8-18.4-11-29.7c2.3-32.7,47.8-25.5,56.7-9s7.8,58.4-3.6,61.3
						c-4.6,1.2-14.3-1.7-24.2-7.7l6.2,43.9h-36.6L-673.8,269.2z"/>
				</g>
				<path id="hair_1_" class="st16" d="M-646.8,259.6c-1.2-1.2-1.8-2.9-2.4-4.4c-0.6-1.6-1.1-3.3-1.6-5c-0.7-3.5-0.8-7.4,1.7-10
					c2-2.1,4.9-3.1,7.6-3.3c1.8-0.1,3.7,0.1,5.4,0.7c1.7,0.6,3.2,1.7,4.9,2.4c0.1-3.7,0.7-7.6,2.6-10.7c1.8-3,4.7-4.7,8-5.2
					c3.4-0.4,6.7,0.3,9.7,1.9c0.7,0.4,1.5,0.8,2.2,1.3c0.6,0.4,1.3,0.9,1.9,1c0.8,0.1,1.2-0.3,1.7-0.8c0.6-0.7,1.3-1.3,2-1.8
					c3.2-2.3,7.3-3.2,10.9-1.8c1.7,0.7,3.3,1.7,4.4,3.2c1,1.3,1.8,3.5,3.2,4.4c0.6,0.4,1-0.1,1.6-0.5c0.8-0.6,1.6-1.3,2.4-1.8
					c1.2-0.8,2.4-1.4,3.8-1.7c2-0.4,4.7-0.4,5.2,2.2c0.2,1,0.1,2,0,3c-0.1,1.3-0.2,2.7-0.3,4c-0.1,1-0.2,2-0.4,3
					c-0.1,0.5-0.4,1.6-0.2,2.1c0.3,0.7,1.6,0.3,2.1,0.3c1.1,0.1,2.2,0.2,3.2,0.7c0.8,0.4,1.6,0.9,2,1.8c0.2,0.6,0.1,1.1,0.1,1.7
					c-0.1,0.7,0,1,0.1,1.8c1.5-0.7,6.6-2.4,7.3,0.3c0.2,0.9-0.3,1.9-0.7,2.7c-0.7,1.3-1.6,2.5-2.4,3.7c-1.8,2.4-4.1,4.4-6.4,6.2
					c2.7,1.3,3.5,4.9,1.1,7c-1,1-2.5,1.2-3.8,1.1c-0.5,0-1.2-0.2-1.6-0.1c-0.2,0.1-0.4,0.2-0.7,0.2c-1.9,0.1-4-0.3-5.8-0.7
					c-3.2-0.7-6.4-2.3-8.9-4.7c-0.7-0.6-1.2-1-2.1-1c-0.7,0-1.6,0.2-2.3,0.2c-2,0.1-3.8-1-5.8-1.6c-0.1,2.5-0.8,5.3-1.8,7.6
					c-0.8,1.8-2.7,2.1-4.4,2.3c-5.5,0.5-11.2-0.1-16.8-0.1c5.4,1.3,11,1.7,16.3,3.2c2.4,0.7,0.6,2.3-0.4,3.4c-1.7,1.8-3,4.1-3.8,6.6
					c-2.7-3.5-7.3-5.7-11.4-4.7c-4.6,1.2-7.8,7.4-4.9,11.8c1.7,2.6,4.7,3.5,7.3,4.7c-2,2.1-2.4,5.1-3.7,7.7
					c-0.6,1.3-1.4,2.7-2.7,3.2c-0.5,0.1-1,0.1-1.5,0.6c-0.4,0.5-0.6,1-1.2,1.5c-2.4,1.7-6.2,1.6-8.4-0.7c-1.9-2-1.5-5.2,0.2-7.2
					c-2.6-1.1-7.3-2.4-6.3-6.5c-5.6-0.4-19.3-9.5-11.7-16.2c-4.1-2.4-8-8.1-5.3-13.1C-655.5,261.6-650.7,259.8-646.8,259.6"/>
			</g>
			<g id="Bottom_x2F_Sitting_x2F_Skinny-Jeans-1" transform="translate(0.000000, 187.000000)">
				<g id="Objects_x2F_Seat_x2F_Cube" transform="translate(10.000000, 42.000000)">
					<g id="Seat" transform="translate(55.000000, 0.000000)">
						<polygon id="Seat-Stuff" class="st5" points="-681.7,321 -563.7,321 -548.2,510.4 -723.9,510.4 						"/>
						<polygon id="Seat-Stuff_1_" class="st3" points="-681.7,321 -645.4,321 -623.6,510.4 -723.9,510.4 						"/>
					</g>
				</g>
				<path id="Skin_3_" class="st20" d="M-364.2,330.5c12.6-7.5,33.7,2.1,33.7,12.9c-0.1,32.4-29.5,184.7-31.1,194.3
					c-1.6,9.6-18,12.2-19,0c-1.6-19.4-4.4-86.2-1.6-117.1c1.2-12.8,2.4-25,3.7-35.8c-15.5,27.9-39.4,68-71.8,120.1l-17.6-8.1
					c13.8-45.5,25.1-77.6,34-96.4c15.1-32.1,29.3-59.6,35.3-69.3C-389.2,315.9-372.8,321.3-364.2,330.5z"/>
				<path id="LegLower" class="st19" d="M-466.6,471.6l60.3-143c14.5-23.3,55,4.7,50.1,18.2c-11.2,30.7-68.2,129.8-71.5,138.9
					L-466.6,471.6z"/>
				
					<g id="Accessories_x2F_Shoe_x2F_Flat-Sneaker_3_" transform="translate(215.500000, 133.000000) rotate(30.000000) translate(-215.500000, -133.000000) translate(185.000000, 113.000000)">
					<path id="shoe_3_" class="st21" d="M-385.7,670c-1.7,4.6-2.6,8-2.6,10.3c0,2.7,0.4,6.8,1.4,12c3.2,0,31.9,0,86.1,0
						c2.2-7.4,1-11.4-3.8-12c-4.8-0.6-8.9-1.1-12-1.6l-40-17.9c-0.7-0.4-1.7,0-2,0.7c0,0,0,0,0,0.1l-2.6,6.3
						c-4.4,2.1-8.1,3.1-10.9,3.1c-2.3,0-5.4-0.9-9.4-2.7l0,0c-1.6-0.7-3.3,0-4.1,1.5C-385.6,669.9-385.6,669.9-385.7,670z"/>
				</g>
				<g id="Accessories_x2F_Shoe_x2F_Flat-Sneaker_2_" transform="translate(242.000000, 126.000000)">
					<path id="shoe_2_" class="st21" d="M-626.5,404.1c-1.7,4.6-2.6,8-2.6,10.3c0,2.7,0.4,6.8,1.4,12c3.2,0,31.9,0,86.1,0
						c2.2-7.4,1-11.4-3.8-12c-4.8-0.6-8.9-1.1-12-1.6l-40-17.9c-0.7-0.4-1.7,0-2,0.7c0,0,0,0,0,0.1l-2.6,6.3
						c-4.4,2.1-8.1,3.1-10.9,3.1c-2.3,0-5.4-0.9-9.4-2.7l0,0c-1.6-0.7-3.3,0-4.1,1.5C-626.4,403.9-626.4,404-626.5,404.1z"/>
				</g>
				<path id="Leg-and-Butt" class="st22" d="M-326.3,354.4c0,40.6-19.3,135.2-19.3,144.2H-387c6.1-84.4,8.2-127.1,6.4-128.1
					c-2.7-1.3-108.5,10.6-140.3,10.6c-45.8,0-64.7-28.9-66.3-82.4h90.7c18.5,2,114.8,21.4,150.6,28.1
					C-330.5,329.8-326.3,343.3-326.3,354.4z"/>
			</g>
			<g id="Body_x2F_Pointing-Forward_1_" transform="translate(22.000000, 82.000000)">
				<path id="Skin_2_" class="st23" d="M-504.3,308.7l53-29c8.8-10.5,17.5-18.6,26.1-24.4c2.6-1.1,7.2-1.8,2.9,5.8
					c-4.3,7.6-8.4,15.7-6.3,18.1c2.1,2.4,7.6-1,10.2,3c1.7,2.6-7.5,6.6-27.8,12.3l-38.6,35.3L-504.3,308.7z M-421.3,333.1l23.3-12.8
					c3.2-12.4,7.2-18.7,11.7-18.8c3.5-1.6-2.6,14.1,4.1,12.7c6.6-1.3,22.7-13.4,25.6-10.9c4.1,3.6,0.4,14.7-3.9,20.2
					c-8.1,10.3-14.8,13.8-31.3,18.5c-8.6,2.4-18,7.2-28.1,14.5L-421.3,333.1z"/>
				<path id="Sleeve_1_" class="st18" d="M-530.1,302.2c18.5-0.2,43.4-4.1,69.7-20.9l10.3,23.1c-18.2,18.1-43.9,32.9-66.3,32.4
					C-533.9,336.3-542.9,314.9-530.1,302.2z"/>
				<path id="Clothes_1_" class="st19" d="M-505.1,339.3c19.7,4.9,52.7-0.9,99.2-17.4c11.5,23.8,16.8,40.8,16,50.9
					c-39.8,20.8-73.9,30.1-102,30.7c0.9,16.7-1.1,32.6-8,47.1c-14,29.8-96.1,2.2-123.7,7.6c-17.3-56.1,16.1-79,16.2-114.9
					c0-39.4,31.6-99.9,36.3-99.9h42.4C-526.5,273.5-514.8,306.6-505.1,339.3z"/>
			</g>
		</g>
	</g>
	<g>
		<g id="humaaans_x2F_standing-19">
			<g id="humaaan-3" transform="translate(28.000000, 2.000000)">
				
					<g id="Head_x2F_Front_x2F_Short-Beard" transform="translate(133.219486, 73.532869) rotate(-15.000000) translate(-133.219486, -73.532869) translate(59.569689, 17.301852)">
					<g id="Head_1_" transform="translate(58.494090, 33.282773)">
						<path class="st20" d="M884.1,442.7L851,423.5l28.4-36.1c-12,0.1-22.3-2.3-25.8-5.8c-8.8-8.6,11.9-46.7,28.4-56.8
							c16.5-10.2,61.4,7.2,46.5,37.6c-5.2,10.6-14.7,17.1-25.3,20.9L884.1,442.7z"/>
					</g>
					<path id="Hair" class="st16" d="M953.6,368.3c-14.7-8.2-14.9-11.7-9.9-20.5c3.3-0.3,13.2,1.7,23,6.3c5.5,1.4,11,4.9,15.1,10.3
						c5.6,5.8,8.9,13.1,7,22.1c0.1,20.7-16,32.8-28.4,32.9c-0.8-4.3-1.3-8.3-1.7-12.1c2.4-0.6,4.6-2.1,5.9-4.4
						c2.6-4.5,1-10.3-3.5-13c-0.4-0.2-0.7-0.4-1-0.5c-9.7,15.7-16.8,25.6-21.5,29.6c-7.2,6.4-23.6-0.6-29-3.6c-5.2-3-1-8.1,0.7-11.2
						c1-1.8,5.2,3.7,6.9,0.7c1.8-3.1-4.1-9-4.4-11.8c-0.4-3.4,1-6.9,3.5-5.5c3.5,2.1,7.5,11.2,15.7,15.9c5.5,3.2,13.9-3.7,25.3-20.5
						C957,377.1,956.1,372.3,953.6,368.3z"/>
				</g>
				<g id="Bottom_x2F_Standing_x2F_Baggy-Pants" transform="translate(0.000000, 218.435876)">
					<polygon id="Leg_6_" class="st23" points="992,164.3 911.8,528.3 932.5,528.3 985,361.6 1063.3,164.3 					"/>
					<path id="Leg_5_" class="st20" d="M1001.1,164.3c18.8,66.3,42.3,177.4,49.6,189.5c4.8,8.1,59.2,42.2,163.1,102.6l14.3-15.2
						c-88-70.4-132.7-107-134.1-109.9c-1.9-4.4-14.1-97.6-14.9-167L1001.1,164.3L1001.1,164.3z"/>
					
						<g id="Accessories_x2F_Shoe_x2F_Flat-Sneaker" transform="translate(55.786030, 203.938854) rotate(50.000000) translate(-55.786030, -203.938854) translate(22.747702, 182.358023)">
						<path id="shoe" class="st21" d="M965.4-728.6c-1.5,1-1.8,3-0.8,4.4l0,0c2.6,3.8,4.1,6.8,4.5,9.2c0.5,2.9,0.1,6.8-1.3,11.7
							l-6,3.8c0,0,0,0-0.1,0c-0.7,0.5-0.9,1.5-0.4,2.2l25.6,37.9c1,3.2,2.4,7.2,3.8,12c1.5,4.8,5.8,5.5,13,1.8
							c-9.8-55.8-15.1-85.2-15.6-88.6c-5.6,0-9.8,0.3-12.6,0.7c-2.4,0.4-5.7,1.9-10,4.5C965.5-728.6,965.5-728.6,965.4-728.6z"/>
					</g>
					<g id="Accessories_x2F_Shoe_x2F_Flat-Sneaker_1_" transform="translate(225.310568, 214.729269)">
						<path id="shoe_1_" class="st21" d="M715.6,305.8c-0.7-1.6-2.7-2.3-4.2-1.6l0,0c-4.1,1.9-7.5,2.9-9.8,2.9
							c-2.9,0-6.7-1.1-11.4-3.2l-2.7-6.5c0,0,0,0,0-0.1c-0.4-0.8-1.3-1.2-2.1-0.8l-41.8,18.6c-3.3,0.5-7.5,1-12.6,1.7
							c-5,0.6-6.4,4.8-4.1,12.5c56.6,0,86.6,0,89.9,0c1-5.5,1.4-9.7,1.4-12.6c0-2.4-0.9-5.9-2.7-10.7
							C715.7,306,715.7,305.9,715.6,305.8z"/>
					</g>
					<polygon id="Pant_3_" class="st13" points="1073.4,164.3 985.1,164.3 912.2,500.5 1010.6,511.1 					"/>
					<path id="Pant_2_" class="st11" d="M1102.7,302.1c-1.7-4.1-5-50-10-137.8h-99.3c9,99.8,19.2,160.9,30.5,183.5
						c11.3,22.6,51,70.9,119.1,145l64.6-76.2C1139.4,344.4,1104.4,306.2,1102.7,302.1z"/>
				</g>
				
					<g id="Body_x2F_Hoodie" transform="translate(161.379703, 207.081536) rotate(-10.000000) translate(-161.379703, -207.081536) translate(22.744790, 105.973841)">
					<path id="Skin_1_" class="st20" d="M883.6,403.3l-54.4,2.3c-19.1,10.8-29,14.6-29.5,11.4c-1-4.8,5.5-6.4,5.3-9.7
						c-0.1-3.3-9.2-6.3-17.9-8.7c-8.8-2.4-4.9-5.3-2.1-6.4c10.6-2,23-2.4,37.2-1.2l60.5-17.5L883.6,403.3z M1050.2,543.7
						c0.6,5.1,11.7,24.1,19.9,35.6c3.3,4.7,0.1,7.8-1.9,8.3c-16.6,3.4-22-9.7-31.8-19.4c-10.7-10.6-15.7,6.6-24.3-1.7
						c5.7-5.8,17.7-16.2,17.4-26c-0.1-4.4,1.4-41.1,4.7-110.2l31.3,11.3C1054.5,502.7,1049.4,536.8,1050.2,543.7z"/>
					<path id="Coat-Back" class="st24" d="M833.8,410.7L826,388c74.2-20.6,122.8-92.8,185.9-116.6l12.1,6.9
						C1001.2,347.7,940.6,435.3,833.8,410.7z"/>
					<path id="Shirt" class="st8" d="M1041.2,275.6l-34.9-6.9c-22.7,62.4-74,97.2-98.7,137.8c-2.1,3.5-5.8,10.7-0.6,12.6
						c24.4,8.9,62.7,22.8,114.6,41.7C1042.5,386.7,1052.7,329.4,1041.2,275.6z"/>
					<path id="Coat-Front" class="st25" d="M1051.3,542.6l-24.6-8.9c-1.8-10.3-3.1-22.5-3.9-36.9L932.6,464
						c-1.1-38.3,31.4-102.2,97.5-191.5l10.6,3.2c1,0.2,2.1,0.5,3.2,0.9c20.6,7.5,35,3.6,46.5,12.2c11.4,8.6,11.5,22.2-8.5,39.4
						c-4.7,4-9.6,5.8-14.9,5.5C1085.8,399.4,1080.7,469,1051.3,542.6z"/>
					<path id="Shade_1_" class="st3" d="M1022.7,496.8l-33.5-12.2c10.3-8.3,21.1-23.8,32.6-46.4
						C1021.4,460.5,1021.7,480.1,1022.7,496.8z"/>
				</g>
			</g>
		</g>
	</g>
</g>
<g>
	<g>
		<path class="st26" d="M761.3,439H579.7c-10.3,0-18.7-8.4-18.7-18.7v-77.7c0-10.3,8.4-18.7,18.7-18.7h181.7
			c10.3,0,18.7,8.4,18.7,18.7v77.7C780,430.6,771.6,439,761.3,439z"/>
	</g>
	<polygon class="st14" points="650,360 650,408 692,384 	"/>
</g>
</svg>
